<?xml version="1.0" encoding="UTF-8" standalone="no"?>
<svg
   width="739.10126"
   height="815.71179"
   viewBox="0 0 739.10126 815.71179"
   version="1.1"
   id="svg4"
   sodipodi:docname="logo.svg"
   inkscape:version="1.3.2 (091e20e, 2023-11-25, custom)"
   xml:space="preserve"
   xmlns:inkscape="http://www.inkscape.org/namespaces/inkscape"
   xmlns:sodipodi="http://sodipodi.sourceforge.net/DTD/sodipodi-0.dtd"
   xmlns="http://www.w3.org/2000/svg"
   xmlns:svg="http://www.w3.org/2000/svg"><defs
     id="defs4"><rect
       x="33.537117"
       y="228.0524"
       width="15.650655"
       height="17.327511"
       id="rect14" /><inkscape:path-effect
       effect="powerclip"
       id="path-effect13"
       is_visible="true"
       lpeversion="1"
       inverse="true"
       flatten="false"
       hide_clip="false"
       message="Utilise la règle de remplissage « fill-rule: evenodd » de la boîte de dialogue &lt;b&gt;Fond et contour&lt;/b&gt; en l'absence de résultat de mise à plat après une conversion en chemin." /><clipPath
       clipPathUnits="userSpaceOnUse"
       id="clipPath5"><rect
         style="fill:#37abc8;stroke:#37abc8;stroke-width:2.66667"
         id="rect5"
         width="212.63843"
         height="322.5148"
         x="632.58215"
         y="325.6767"
         ry="106.31921" /></clipPath><clipPath
       clipPathUnits="userSpaceOnUse"
       id="clipPath6"><path
         d="m 747.06,568.5 c -1.19,5.5 -2.5,10.33 -2.9,10.74 -1.19,1.2 -15.06,-7.52 -23.06,-14.49 -10.27,-8.95 -16.45,-16.72 -21.66,-27.25 -6.18,-12.48 -8.44,-22.13 -8.44,-36.05 0,-15.31 1.78,-24.52 9.92,-51.34 5.88,-19.37 8.08,-31.98 8.08,-46.25 0,-13.54 -2.56,-28.53 -6.46,-37.76 -1.3,-3.08 -2.23,-5.74 -2.06,-5.91 0.76,-0.77 19.33,9.4 28.22,15.45 15.75,10.72 21.12,15.06 33.16,26.79 15.7,15.3 26.59,30.19 35.12,48.05 25.32,52.98 12.88,103.11 -31.37,126.42 -7.13,3.75 -8.85,3.93 -8.11,0.85 0.3,-1.24 0.94,-5.54 1.43,-9.55 0.65,-5.25 1.55,-8.11 3.23,-10.16 7.11,-8.68 23.32,-28.75 24.25,-30.03 1.15,-1.57 -4.32,3.11 -16.66,14.24 -4.11,3.71 -7.65,6.75 -7.86,6.75 -0.22,0 -0.36,-10.93 -0.31,-24.28 0.07,-24.12 0.09,-24.3 2.63,-28.75 8.67,-15.2 10.64,-18.73 11.71,-20.97 l 0.09,-0.17 c 0.36,-0.76 0.62,-1.3 0.53,-1.37 -0.21,-0.15 -2.37,2.31 -9.61,10.6 l -0.69,0.79 c -6.12,7.01 -6.55,6.93 -7.67,-1.35 -1.79,-13.18 -9.83,-41.24 -15.18,-52.99 -3,-6.59 -2.95,-4.84 0.13,4.81 2.76,8.64 6.94,28.65 8.05,38.54 0.03,0.3 0.07,0.58 0.1,0.86 0.29,2.55 0.47,4.09 -0.13,4.49 -0.91,0.62 -3.63,-1.41 -10.51,-6.54 -0.48,-0.36 -0.98,-0.73 -1.51,-1.12 -4.82,-3.6 -9.06,-6.53 -9.4,-6.5 -0.34,0.03 4.78,5.2 11.38,11.5 l 12,11.45 -0.03,21.45 c -0.02,11.79 -0.35,21.76 -0.74,22.15 -0.38,0.39 -2.86,-1.28 -5.51,-3.7 -5.79,-5.3 -9.79,-8.78 -17.68,-15.4 l -5.95,-5 2.93,4 c 3.05,4.17 15.33,18.9 21.61,25.93 l 3.63,4.07 -1.26,8.5 c -0.7,4.67 -2.25,13 -3.44,18.5 z M 675.17,339.35 c -2.76,2.49 -4.29,2.07 -10.75,-2.99 -44.88,-35.19 -107.71,-53.21 -172.2,-49.41 -10.6,0.62 -20.05,1.37 -21,1.67 -1.42,0.44 -1.46,0.36 -0.22,-0.43 3.93,-2.52 25.99,-5.38 45.58,-5.91 29.45,-0.8 46.74,1.25 73.92,8.73 17.1,4.71 27.15,8.37 41.18,14.98 14.27,6.74 23.84,12.62 37.07,22.78 4.54,3.49 8.25,6.92 8.25,7.63 0,0.71 -0.82,2.03 -1.83,2.95 z m -53.47,-46.1 c -0.68,3.23 -1.17,3.74 -3.5,3.71 -3.88,-0.05 -12.91,-3.49 -17.47,-6.65 -10.24,-7.1 -15.03,-16.87 -14.85,-30.31 0.06,-4.68 0.47,-10.07 0.91,-12 0.72,-3.14 1.1,-3.47 3.76,-3.18 1.62,0.18 6.19,1.91 10.15,3.85 8.25,4.03 14.69,10.31 18.94,18.45 2.43,4.65 2.82,6.53 2.84,13.88 0.01,4.67 -0.34,10.19 -0.78,12.25 z m -177.58,16.23 c -5.96,2.02 -17.29,1.85 -24.12,-0.38 -6.06,-1.99 -15,-6.19 -14.99,-7.05 0,-0.3 1.7,-2.79 3.77,-5.52 8.97,-11.85 22.88,-19.36 33.78,-18.24 6.65,0.69 13.99,3.89 18.16,7.93 l 3.22,3.12 -2.69,4.95 c -3.37,6.19 -11.27,13.19 -17.13,15.19 z m 153.43,29.29 c -4.12,2.12 -6.71,2.65 -14.05,2.9 -8.43,0.28 -17.44,-1.35 -19.78,-3.58 -1.27,-1.21 6.96,-16.52 11.25,-20.94 5.54,-5.71 14.65,-10.1 22.47,-10.83 7.95,-0.74 20.56,2.62 20.56,5.49 0,3.47 -6.8,15.78 -11.06,20.03 -2.39,2.38 -6.62,5.5 -9.39,6.93 z m -41.02,-9.16 c -6.07,2.78 -17.69,3.86 -24.4,2.26 -4.31,-1.02 -4.36,-1.08 -3.79,-4.61 0.98,-5.98 7.26,-17.91 11.87,-22.52 7.96,-7.97 18.11,-11.25 29.68,-9.61 3.61,0.51 6.9,1.26 7.3,1.66 1.18,1.18 -1.99,13.07 -4.9,18.43 -3.34,6.12 -9.01,11.31 -15.76,14.39 z m 24.27,-55.98 c 0.24,5.03 0.04,9.77 -0.44,10.54 -1.23,2.01 -11.19,0.58 -19.07,-2.74 -13.06,-5.51 -20.25,-18.03 -20.28,-35.32 l -0.01,-7.39 6.1,0.63 c 12.08,1.27 25.56,10.29 30.99,20.76 1.74,3.34 2.38,6.57 2.71,13.52 z m -40.16,4.88 c -0.45,1.15 -2.26,1.47 -7.86,1.39 -11.46,-0.16 -15.77,-1.7 -23.57,-8.43 -6.32,-5.45 -12.21,-18.79 -12.21,-27.68 0,-2.78 0.02,-2.79 6.84,-2.79 14.11,0 27.12,7.21 32.7,18.11 2.51,4.92 5.05,16.92 4.1,19.4 z m -23.5,46.61 c -3.53,1.7 -7,2.34 -14.46,2.68 l -9.82,0.44 0.7,-3.87 c 4.41,-24.35 19.51,-37.84 39.07,-34.9 l 4.63,0.69 -0.68,6.63 c -1.32,12.85 -8.24,22.93 -19.44,28.33 z M 496.1,280.75 c -4.44,1.36 -13.14,1.52 -17.1,0.31 -9,-2.74 -16.86,-9.86 -21.81,-19.73 -4.94,-9.83 -4.94,-10.05 0.01,-11.39 11.2,-3.05 27.1,1.09 33.88,8.8 3.65,4.16 7.78,12.58 8.56,17.47 0.5,3.12 0.32,3.35 -3.54,4.54 z m -20.35,45.73 c -2.81,0.84 -7.57,1.52 -10.58,1.52 h -5.46 l 0.65,-6.97 c 0.93,-9.95 3.81,-16.85 9.41,-22.54 6.33,-6.44 11.89,-8.83 20.73,-8.92 l 7,-0.07 0.34,3.5 c 0.49,4.99 -1.61,13.69 -4.69,19.42 -3.28,6.1 -10.65,12.06 -17.4,14.06 z m 261.56,300.55 c -2.83,2.61 -9.31,0.89 -9.31,-2.48 0,-0.73 2.43,-6.37 5.41,-12.54 2.97,-6.16 6.68,-15.22 8.23,-20.11 1.56,-4.9 3.12,-8.9 3.48,-8.9 0.36,0 1.62,0.79 2.8,1.75 l 2.15,1.75 -2.53,10 c -2.76,10.9 -8.94,29.33 -10.23,30.53 z M 403.22,277.63 c -7.85,1.85 -14.95,3.37 -15.78,3.37 -1.79,0 -3.08,-2.79 -1.82,-3.94 1.2,-1.09 35.12,-8.92 46.13,-10.65 4.05,-0.63 4.25,-0.55 4.25,1.84 0,2.36 -0.51,2.6 -9.25,4.25 -5.09,0.97 -15.68,3.27 -23.53,5.13 z m 12.72,51.81 c -18.71,5.16 -20.94,5.44 -20.94,2.64 0,-2.14 0.26,-2.24 18,-7.12 6.33,-1.74 15.27,-4.24 19.88,-5.54 4.61,-1.31 8.77,-2.13 9.25,-1.84 0.48,0.3 0.87,1.4 0.87,2.45 0,1.46 -1.26,2.27 -5.25,3.39 -2.89,0.81 -12.7,3.52 -21.81,6.02 z m 23.99,8.61 c -8.45,2.17 -15.94,3.95 -16.65,3.95 -1.91,0 -1.55,-3.79 0.47,-4.83 1.84,-0.94 29.27,-8.17 31.02,-8.17 1.42,0 2.48,3.15 1.41,4.22 -0.48,0.48 -7.79,2.66 -16.25,4.83 z M 431,257.13 c -18,3.42 -20,3.51 -20,0.91 0,-2.29 2.01,-2.93 18.96,-5.98 14.92,-2.68 16.27,-2.67 15.86,0.13 -0.29,1.98 -1.68,2.45 -14.82,4.94 z m -50.33,53.92 c -12.15,3.51 -14.67,3.69 -14.67,1.03 0,-2.18 3.3,-3.45 19.68,-7.54 l 0.32,-0.08 c 8.54,-2.13 11,-2.75 11.71,-1.9 0.29,0.35 0.29,0.93 0.29,1.75 v 0.08 c 0,1.95 -0.66,2.51 -3.58,3.06 -1.97,0.37 -8.16,1.99 -13.75,3.6 z m 152.54,269.27 c -1.32,-5.84 -2.15,-5.89 -2.19,0.18 -0.03,3.3 -0.49,6.67 -1.02,7.5 -0.21,0.32 -0.38,0.24 -0.52,-0.25 l 0.26,-7 c 0.19,-4.81 0.68,-8.75 1.11,-8.75 0.4,0 1.44,3.69 2.36,8.32 z M 256,379.11 c 0,-1.22 -1.86,-1.83 -4.4,-1.53 2.19,-0.59 4.74,-1 5.73,-0.74 0.45,0.12 1.34,-1.15 1.97,-2.81 0.28,-0.75 0.53,-1.31 0.83,-1.74 -0.13,0.59 -0.13,1.45 -0.13,2.71 0,3.49 0.29,4 2.25,3.98 0.12,0 0.23,0 0.35,-0.01 -2.07,0.3 -4.78,0.52 -7.3,0.64 0.44,-0.14 0.7,-0.32 0.7,-0.5 z m 284.58,229.14 c 0.32,0.32 0.42,1.63 0.23,2.91 l -0.35,2.34 -0.69,-2.46 c -0.69,-2.46 -0.28,-3.88 0.81,-2.79 z m -11.21,-20.99 c -0.23,-1.36 -0.35,-4.2 -0.35,-8.61 L 529,567.8 l 0.21,10.85 z M 265.61,378.23 c 0.61,-0.4 1.32,-2.19 1.58,-3.98 0.05,-0.38 0.1,-0.71 0.13,-1.01 -0.03,0.35 -0.07,0.74 -0.12,1.19 -0.22,1.89 -0.98,3.65 -1.68,3.92 -0.14,0.06 -0.3,0.11 -0.49,0.16 0.24,-0.09 0.44,-0.18 0.58,-0.28 z m -17.54,0.81 c 0.04,0.17 0.2,0.32 0.49,0.46 -0.36,-0.07 -0.56,-0.16 -0.56,-0.28 0,-0.06 0.03,-0.12 0.07,-0.18 z"
         fill="#99aa60"
         id="path6" /></clipPath><clipPath
       clipPathUnits="userSpaceOnUse"
       id="clipPath7"><path
         d="M 0,512 V 0 h 512 512 v 512 512 H 512 0 Z m 528.54,406.53 c 8.46,-2.1 24.47,-10.51 77.46,-40.7 25.58,-14.58 57.53,-32.73 71,-40.33 39.51,-22.31 74.75,-42.3 85.5,-48.49 5.5,-3.17 24.62,-13.99 42.5,-24.04 44.12,-24.82 49.82,-28.2 54.82,-32.52 7.94,-6.85 15.19,-18.32 19.57,-30.95 2.08,-5.98 2.08,-6.66 2.38,-186 0.32,-198.67 0.66,-186.89 -5.87,-201.36 -3.91,-8.66 -11.83,-19.08 -18.16,-23.9 -2.88,-2.2 -15.82,-9.97 -28.74,-17.27 -31.59,-17.83 -91.81,-51.99 -122.5,-69.48 -22.87,-13.03 -78.16,-44.34 -140.6,-79.63 -13.53,-7.65 -27.07,-14.77 -30.09,-15.84 -16.37,-5.75 -36.39,-5.02 -51.31,1.87 -3.3,1.53 -18.15,9.67 -33,18.1 -14.85,8.43 -40.5,22.98 -57,32.34 -50.98,28.9 -79.72,45.23 -113.5,64.45 -17.88,10.18 -49.6,28.18 -70.5,39.99 -20.9,11.82 -39.87,22.77 -42.15,24.34 -9.78,6.72 -18.87,20.09 -23.35,34.39 l -2.19,7 0.13,181 c 0.14,202.31 -0.43,186.76 7.4,202 3.02,5.87 6.25,10.13 12.14,16 7.06,7.04 10.18,9.19 26.02,17.9 9.9,5.44 37.57,21.03 61.5,34.63 23.92,13.61 72.3,41.07 107.5,61.03 35.2,19.95 75.48,42.81 89.5,50.8 32.87,18.73 41.13,22.87 49.03,24.58 8.68,1.88 25.08,1.92 32.51,0.09 z m -28.48,-23.12 c -3.26,-0.88 -17.49,-8.32 -35.5,-18.57 C 448.03,867.43 427.52,855.79 419,850.96 410.48,846.14 378.75,828.13 348.5,810.95 257.33,759.17 243.2,751.16 226,741.53 216.93,736.45 203.65,729 196.5,724.99 178.2,714.7 172,707.86 167.61,693.07 166.16,688.16 166,670.6 166,511.91 c 0,-169.32 0.07,-175.95 1.88,-181.79 4.48,-14.39 11.26,-21.16 33.62,-33.57 8.8,-4.89 28.82,-16.16 44.5,-25.04 15.67,-8.89 40.88,-23.17 56,-31.73 32.75,-18.55 102.16,-57.94 153.5,-87.11 20.35,-11.56 39.7,-21.87 43,-22.92 7.11,-2.26 23.35,-2.04 30.07,0.41 2.24,0.82 25.41,13.64 51.5,28.5 26.09,14.86 62.73,35.7 81.43,46.32 18.7,10.61 49.97,28.39 69.5,39.5 19.53,11.1 51.86,29.38 71.87,40.61 20.08,11.27 38.44,22.26 41,24.55 5.97,5.34 11.13,13.98 13.3,22.28 1.59,6.09 1.72,19.38 1.77,179.62 0.07,189.51 0.41,178.04 -5.74,190.37 -1.49,2.97 -4.78,7.7 -7.32,10.5 -4.8,5.29 -6.78,6.52 -43.88,27.34 -17.81,10 -61.12,34.58 -96.5,54.76 -6.05,3.45 -23.15,13.14 -38,21.52 -14.85,8.39 -38.47,21.78 -52.5,29.76 -48.18,27.39 -77.51,43.92 -82,46.22 -9.83,5.02 -22.17,6.29 -32.94,3.4 z M 630.79,737.75 c 0.15,-5.36 0.53,-9.75 0.84,-9.75 0.3,0 1.7,0.9 3.1,2 1.51,1.19 4.05,2 6.27,2 8.89,0 12.58,-8.29 11.77,-26.48 C 652.09,690.14 649.1,685 640.82,685 c -4.2,0 -8.8,1.77 -8.85,3.41 -0.02,0.6 -0.49,0.3 -1.05,-0.66 -0.73,-1.25 -2.29,-1.75 -5.47,-1.75 H 621 v 31.05 31.06 l 4.75,-0.31 4.75,-0.3 z M 276.53,729 c 0.06,-1.38 0.18,-7.54 0.29,-13.71 l 0.18,-11.21 8.75,-0.29 8.75,-0.29 0.31,-4.25 0.3,-4.25 H 286.06 277 v -9 -9 h 10 10 v -4.51 -4.52 l -13.75,0.15 c -7.56,0.08 -14.54,0.34 -15.5,0.58 -1.62,0.4 -1.75,2.73 -1.75,31.2 0,16.92 0.32,31.09 0.71,31.48 0.39,0.39 2.74,0.58 5.22,0.42 4.03,-0.27 4.52,-0.56 4.6,-2.8 z m 33.52,-4 1.54,-6.5 7.57,-0.29 7.57,-0.29 0.65,3.24 c 0.36,1.78 1.11,4.94 1.67,7.04 1.01,3.75 1.09,3.8 5.99,3.8 2.73,0 4.96,-0.46 4.96,-1.03 0,-0.56 -3.16,-13.72 -7.01,-29.25 -3.86,-15.52 -7.24,-29.23 -7.52,-30.47 -0.46,-2.02 -1.11,-2.25 -6.24,-2.23 l -5.73,0.01 -7.61,30.74 c -4.19,16.9 -7.41,31.09 -7.16,31.53 0.25,0.44 2.55,0.67 5.11,0.5 l 4.66,-0.3 z m 62.93,3.93 c 2.96,-1.64 5.15,-3.89 6.76,-6.93 2.31,-4.36 2.38,-5.1 2.07,-23.5 -0.29,-17.71 -0.46,-19.25 -2.58,-22.64 -3.39,-5.47 -7.76,-7.06 -20.93,-7.64 l -11.3,-0.5 v 32.27 32.27 l 10.8,-0.45 c 9.06,-0.37 11.51,-0.84 15.18,-2.88 z M 402,712.5 c 0,-11.17 0.39,-19.5 0.92,-19.5 0.73,0 8.81,19.52 15.03,36.3 0.97,2.61 1.38,2.79 5.8,2.5 l 4.75,-0.3 0.26,-31.81 0.27,-31.8 -4.77,0.3 -4.76,0.31 -0.27,18.47 c -0.15,10.16 -0.66,18.86 -1.12,19.32 -0.47,0.47 -2.55,-3.57 -4.62,-8.97 -2.08,-5.4 -5.46,-14.1 -7.52,-19.32 l -3.74,-9.5 -5.12,-0.3 -5.11,-0.3 V 699.95 732 h 5 5 z m 68.81,14.75 0.3,-4.25 h -9.49 c -5.23,0 -9.72,-0.35 -9.98,-0.78 -0.27,-0.43 2.49,-5.27 6.12,-10.75 9.96,-15.02 13.24,-21.78 13.24,-27.29 0,-5.94 -2.53,-10.99 -7,-14 -2.98,-2 -4.47,-2.3 -10.01,-2 -4.48,0.25 -7.33,0.97 -9.18,2.34 -3.87,2.86 -7,8.87 -6.62,12.73 0.3,3.19 0.4,3.25 5.31,3.25 h 5 l 0.31,-3.67 c 0.33,-4.03 1.37,-5.24 5.28,-6.17 4.23,-1.01 6.3,1.3 6.25,6.97 -0.05,5.51 -2.01,9.3 -14.67,28.49 -5.84,8.86 -7.67,12.45 -7.67,15.09 0,1.9 0.31,3.77 0.69,4.15 0.38,0.38 7.69,0.57 16.25,0.41 l 15.56,-0.27 z m 19.97,-9.5 0.28,-13.75 h 7.39 c 9.78,0 10.55,-0.37 10.55,-5.07 v -3.85 l -8.75,-0.29 -8.75,-0.29 -0.29,-8.71 -0.29,-8.72 10.29,-0.28 10.29,-0.29 0.3,-3.6 0.3,-3.6 -8.3,-0.64 c -4.56,-0.36 -11.56,-0.65 -15.55,-0.65 L 481,668 v 32.05 32.06 l 4.75,-0.31 4.75,-0.3 z m 50.22,12.5 c 5.8,-2.9 8,-8.63 7.98,-20.71 -0.03,-12.67 -1.07,-17.09 -4.88,-20.9 -2.65,-2.65 -3.9,-3.1 -9.75,-3.47 -8.23,-0.52 -12.61,1.46 -15.43,6.99 -1.6,3.13 -1.92,5.91 -1.92,16.55 0.01,14.36 1.09,17.54 7.24,21.3 4.12,2.51 11.99,2.62 16.76,0.24 z m 40.1,-0.52 c 5.72,-3.82 6.9,-7.5 6.9,-21.58 0,-13.99 -1.24,-18.11 -6.42,-21.26 -4.58,-2.79 -14.23,-2.6 -18.68,0.38 -5.99,4 -7.02,7.43 -6.69,22.23 0.26,11.86 0.5,13.29 2.69,16.36 2.99,4.2 7.14,6.05 13.7,6.1 3.69,0.03 6.05,-0.59 8.5,-2.23 z m 32.71,-2.48 c 0.26,-3.59 0.01,-4.25 -1.55,-4.25 -3.76,0 -4.26,-1.9 -4.26,-16.2 V 693 h 3 c 2.75,0 3,-0.29 3,-3.43 0,-3.01 -0.35,-3.48 -2.75,-3.75 -2.6,-0.3 -2.77,-0.63 -3.05,-6.07 L 607.9,674 h -4.9 -4.9 l -0.3,5.75 c -0.27,5.14 -0.55,5.78 -2.61,6.08 -1.93,0.27 -2.26,0.83 -2,3.5 0.24,2.41 0.85,3.25 2.56,3.49 2.22,0.31 2.25,0.52 2.25,15.35 0,20.28 1.94,24.08 12,23.52 3.37,-0.18 3.51,-0.35 3.81,-4.44 z m 56.93,-9.75 c 0.14,-7.7 0.48,-15 0.77,-16.22 0.8,-3.46 4.48,-6.28 8.18,-6.28 3.31,0 3.31,-0.01 3.31,-5 0,-4.86 -0.08,-5 -2.92,-5 -1.93,0 -3.97,1.04 -6,3.08 l -3.08,3.07 v -2.57 c 0,-2.43 -0.29,-2.58 -5,-2.58 h -5 v 22.33 c 0,12.29 0.32,22.66 0.71,23.05 0.4,0.39 2.53,0.58 4.75,0.42 l 4.04,-0.3 z m 29.03,-8.75 0.27,-22.75 h -5.67 -5.68 l 0.65,11.25 c 0.36,6.19 0.65,16.56 0.66,23.05 v 11.81 l 4.75,-0.31 4.75,-0.3 z M 719,714.5 c 0,-16.17 0.15,-17.65 2,-19.5 2.46,-2.46 4.15,-2.52 6.89,-0.25 1.97,1.64 2.12,2.84 2.36,19.25 l 0.25,17.5 4.75,0.3 4.75,0.31 v -20.63 -20.63 l -2.92,-2.93 c -3.57,-3.56 -8.93,-3.92 -13.85,-0.92 -3.93,2.4 -4.23,2.43 -4.23,0.5 0,-1.13 -1.22,-1.5 -5,-1.5 h -5 v 22.33 c 0,12.29 0.3,22.64 0.67,23 0.36,0.37 2.61,0.67 5,0.67 H 719 Z m 47.81,12.75 c 0.26,-3.59 0.01,-4.25 -1.55,-4.25 -3.76,0 -4.26,-1.91 -4.26,-16.13 v -13.74 l 2.75,-0.31 c 2.28,-0.27 2.8,-0.87 3.06,-3.5 0.27,-2.83 0,-3.21 -2.5,-3.5 -2.68,-0.3 -2.82,-0.6 -3.11,-6.07 L 760.9,674 h -4.9 -4.9 l -0.3,5.75 c -0.27,5.09 -0.56,5.79 -2.55,6.07 -1.83,0.26 -2.25,0.95 -2.25,3.75 0,2.99 0.32,3.43 2.5,3.43 h 2.5 l 0.04,15.75 c 0.03,16.83 0.62,19.37 5.07,21.88 1.31,0.74 4.19,1.24 6.39,1.11 3.95,-0.24 4,-0.3 4.31,-4.49 z m -67.01,-53.5 0.31,-4.75 h -5.06 c -2.78,0 -5.09,0.45 -5.15,1 -0.06,0.55 -0.1,2.12 -0.1,3.5 0,5.71 -0.07,5.63 4.95,5.3 l 4.75,-0.3 z m -389.99,-44.56 0.31,-4.31 -4.22,0.31 c -4.06,0.3 -4.22,0.44 -4.38,3.81 -0.21,4.78 0.13,5.15 4.32,4.8 3.54,-0.29 3.67,-0.44 3.97,-4.61 z m 427.5,-2.16 c 1.29,-1.2 7.47,-19.63 10.23,-30.53 l 2.53,-10 -2.15,-1.75 c -1.18,-0.96 -2.44,-1.75 -2.8,-1.75 -0.36,0 -1.92,4 -3.48,8.9 -1.55,4.89 -5.26,13.95 -8.23,20.11 -2.98,6.17 -5.41,11.81 -5.41,12.54 0,3.37 6.48,5.09 9.31,2.48 z m -198.78,-8.98 c -2.71,-5.24 -1.4,-15.61 2.13,-16.77 0.69,-0.23 1.61,1.74 2.3,4.92 3.49,16.11 2.94,14.8 6.14,14.8 h 2.93 l -2.49,-4.92 c -1.37,-2.7 -2.78,-6.75 -3.14,-9 -0.58,-3.59 -0.42,-4.08 1.27,-4.08 1.06,0 2.45,0.52 3.09,1.16 0.85,0.85 1.51,0.86 2.5,0.04 0.74,-0.61 2.33,-0.86 3.54,-0.54 1.47,0.38 2.21,0.12 2.23,-0.79 0.02,-0.76 0.81,-2.28 1.75,-3.38 1.54,-1.81 2.98,-2.03 13.9,-2.1 14.18,-0.09 13.56,-0.65 13.23,12.03 -0.11,4.08 0.33,8.16 1.02,9.44 1.47,2.76 4.72,2.46 4.24,-0.4 -0.18,-1.08 -0.57,-3.43 -0.86,-5.23 -0.69,-4.23 0.54,-12.44 1.75,-11.69 0.52,0.32 0.94,3.88 0.94,7.91 0,8.1 2.1,12.49 5.38,11.23 1.57,-0.6 1.57,-0.87 0.07,-3.77 -2.37,-4.59 -0.5,-18.2 3,-21.86 1.34,-1.4 3.61,-5.2 5.05,-8.44 1.43,-3.25 3.99,-7.92 5.69,-10.38 l 3.08,-4.48 5.28,0.54 c 4.23,0.44 5.6,0.2 6.87,-1.2 2.15,-2.38 2.12,-2.46 -2.4,-8.19 l -3.98,-5.03 2.16,-2.92 c 2.49,-3.38 2.09,-4.36 -1.28,-3.12 -1.39,0.52 -3.77,0.5 -5.73,-0.04 -2.1,-0.58 -4.39,-0.57 -6.13,0.04 -1.63,0.57 -3.35,0.6 -4.17,0.08 -3.46,-2.19 -5.51,0.5 -2.36,3.11 1.36,1.13 1.35,1.46 -0.13,3.09 -3.2,3.54 -8.21,4.35 -26.9,4.35 -9.9,0.01 -23.49,-0.39 -30.2,-0.87 l -12.2,-0.89 -3.55,3.55 -3.55,3.55 0.02,10.85 c 0.01,7.37 0.32,10.37 0.98,9.35 0.53,-0.83 0.99,-4.2 1.02,-7.5 0.05,-7.07 1.16,-5.84 2.88,3.19 0.98,5.16 0.93,6.78 -0.31,9.75 -1.1,2.63 -1.36,5.88 -0.99,12.31 0.84,14.61 1.03,15.25 4.47,15.25 2.98,0 2.98,0 1.46,-2.95 z M 455,587 v -29 h 30.39 c 26.79,0 30.47,0.19 31,1.58 0.34,0.87 0.61,13.94 0.61,29.05 v 27.47 l 5.67,-0.3 c 3.74,-0.2 5.83,-0.77 6.13,-1.69 0.25,-0.76 0.01,-1.11 -0.54,-0.77 -1.53,0.94 -4.34,-2.76 -5.29,-6.97 -0.64,-2.86 -0.38,-5.2 1.09,-9.54 1.48,-4.39 1.94,-8.53 1.94,-17.35 0,-12.59 0.89,-15.68 5.61,-19.39 2.31,-1.81 4.03,-2.09 13.02,-2.09 H 555 v -11.67 -11.66 l -9.14,-16.59 c -5.02,-9.12 -10.46,-18.96 -12.09,-21.88 l -2.97,-5.29 -21.89,-10.96 C 496.87,473.93 486.33,469 485.5,469 c -0.83,0 -11.64,4.98 -24.01,11.07 -21.16,10.41 -22.62,11.31 -24.83,15.25 -1.29,2.3 -6.69,12.21 -12,22.03 L 415,535.2 v 40.4 40.4 h 20 20 z m 53.37,28.3 c 0.84,-0.85 -21.34,-23.3 -23.02,-23.3 -1.28,0 -22.35,21.86 -22.35,23.19 0,0.99 44.38,1.09 45.37,0.11 z M 555,611.44 c 0,-2.98 -0.33,-3.44 -2.43,-3.44 -2.22,0 -2.36,0.26 -1.58,2.97 1.76,6.12 4.01,6.39 4.01,0.47 z m 29.07,1.87 c 0.58,-1.53 0.73,-5.03 0.35,-8.09 -0.61,-4.87 -0.87,-5.33 -2.8,-4.82 -1.16,0.32 -5.76,0.58 -10.21,0.59 -7.69,0.01 -8.15,0.14 -9.25,2.56 -0.64,1.4 -1.16,4.77 -1.16,7.5 V 616 h 11.02 11.03 z m 31.94,-5.56 c 0,-4.54 0.29,-12.64 0.65,-18 0.42,-6.35 0.29,-9.75 -0.37,-9.75 -0.56,0 -2.24,2.73 -3.74,6.06 -1.49,3.33 -4.03,7.56 -5.65,9.4 -2.37,2.7 -3.11,4.75 -3.85,10.66 -0.63,4.99 -0.58,7.74 0.14,8.61 0.63,0.76 3.39,1.27 6.93,1.27 H 616 Z M 295.8,607.25 296.1,602 H 291.05 286 v 4.83 c 0,2.66 0.32,5.16 0.71,5.55 0.4,0.39 2.53,0.58 4.75,0.42 l 4.04,-0.3 z m 244.78,1 c -1.09,-1.09 -1.5,0.33 -0.81,2.79 l 0.69,2.46 0.35,-2.34 c 0.19,-1.28 0.09,-2.59 -0.23,-2.91 z m -68.97,-10.31 c 5.44,-5.53 9.89,-10.18 9.89,-10.34 0,-0.61 -20.27,-21.6 -20.87,-21.6 -0.34,0 -0.63,9.45 -0.63,21 0,11.55 0.38,21 0.86,21 0.47,0 5.3,-4.53 10.75,-10.06 z M 511.75,587 c -0.14,-11.55 -0.48,-21 -0.77,-21 -0.28,0 -5.18,4.68 -10.89,10.41 l -10.37,10.41 3.85,4.7 c 4.11,5.02 16.4,16.48 17.66,16.48 0.42,0 0.65,-9.45 0.52,-21 z m 17.95,15.17 c 0.3,-2.24 0.24,-4.88 -0.15,-5.87 -0.58,-1.5 -0.94,-1.24 -2.12,1.56 -1.51,3.57 -1.89,8.35 -0.75,9.49 1.2,1.19 2.46,-0.97 3.02,-5.18 z M 298,587.5 V 580 h -7.5 -7.5 v 6.83 c 0,3.76 0.3,7.14 0.67,7.5 0.36,0.37 3.74,0.67 7.5,0.67 H 298 Z m -24,2 V 585 h -4 c -3.97,0 -4,0.03 -4,3.83 0,4.68 0.44,5.17 4.67,5.17 3.28,0 3.33,-0.07 3.33,-4.5 z m 221.72,-26.29 c -5.29,-0.15 -14.1,-0.15 -19.57,0 l -9.97,0.29 9.64,10.39 9.64,10.38 9.94,-10.38 9.93,-10.39 z m 251.34,5.29 c 1.19,-5.5 2.74,-13.83 3.44,-18.5 l 1.26,-8.5 -3.63,-4.07 c -6.28,-7.03 -18.56,-21.76 -21.61,-25.93 l -2.93,-4 5.95,5 c 7.89,6.62 11.89,10.1 17.68,15.4 2.65,2.42 5.13,4.09 5.51,3.7 0.39,-0.39 0.72,-10.36 0.74,-22.15 l 0.03,-21.45 -12,-11.45 c -6.6,-6.3 -11.72,-11.47 -11.38,-11.5 0.34,-0.03 4.58,2.9 9.4,6.5 13.41,9.99 12.9,9.89 12.05,2.31 -1.11,-9.89 -5.29,-29.9 -8.05,-38.54 -3.08,-9.65 -3.13,-11.4 -0.13,-4.81 5.35,11.75 13.39,39.81 15.18,52.99 1.12,8.28 1.55,8.36 7.67,1.35 11.23,-12.86 11.02,-12.64 9.68,-9.85 -1.07,2.24 -3.04,5.77 -11.71,20.97 -2.54,4.45 -2.56,4.63 -2.63,28.75 -0.05,13.35 0.09,24.28 0.31,24.28 0.21,0 3.75,-3.04 7.86,-6.75 12.34,-11.13 17.81,-15.81 16.66,-14.24 -0.93,1.28 -17.14,21.35 -24.25,30.03 -1.68,2.05 -2.58,4.91 -3.23,10.16 -0.49,4.01 -1.13,8.31 -1.43,9.55 -0.74,3.08 0.98,2.9 8.11,-0.85 44.25,-23.31 56.69,-73.44 31.37,-126.42 -8.53,-17.86 -19.42,-32.75 -35.12,-48.05 -12.04,-11.73 -17.41,-16.07 -33.16,-26.79 -8.89,-6.05 -27.46,-16.22 -28.22,-15.45 -0.17,0.17 0.76,2.83 2.06,5.91 3.9,9.23 6.46,24.22 6.46,37.76 0,14.27 -2.2,26.88 -8.08,46.25 -8.14,26.82 -9.92,36.03 -9.92,51.34 0,13.92 2.26,23.57 8.44,36.05 5.21,10.53 11.39,18.3 21.66,27.25 8,6.97 21.87,15.69 23.06,14.49 0.4,-0.41 1.71,-5.24 2.9,-10.74 z m -467.9,2 0.34,-6.5 H 273.25 267 v 5.92 c 0,6.64 0.25,6.88 7.16,7 l 4.67,0.08 z m 311.63,-11.57 c 5.34,-0.59 10.04,-1.4 10.45,-1.79 0.41,-0.4 0.34,-2.13 -0.16,-3.86 -1.26,-4.4 0.59,-6.82 4.51,-5.88 2.61,0.63 9.51,0.83 10.05,0.3 0.11,-0.12 0.32,-21.36 0.45,-47.21 l 0.24,-46.99 -30.16,-0.26 -30.17,-0.27 0.01,20.27 c 0.01,19.97 0.05,20.32 2.61,24.76 19.08,33.13 19.94,35.59 14.46,41.08 -2.38,2.38 -3.78,2.92 -7.5,2.92 H 561 v 8.45 8.45 l 5.25,0.36 c 10.92,0.77 15.1,0.71 24.54,-0.33 z M 281,549.5 V 542 h -8 -8 v 7.5 7.5 h 8 8 z m -48,-4 V 539 h -6 -6 v 6.5 6.5 h 6 6 z m 38.79,-16.75 0.29,-8.75 H 263.04 254 v 8.33 c 0,4.59 0.32,8.65 0.7,9.04 0.39,0.39 4.33,0.58 8.75,0.42 l 8.05,-0.29 z M 299,531.5 V 525 h -7 -7 v 6.5 6.5 h 7 7 z m 108.17,5.25 c 1.56,-1.26 9.44,-15.2 21.04,-37.25 l 6.31,-12 25.49,-12.91 25.49,-12.92 24.3,12.42 c 13.37,6.82 24.67,12.86 25.12,13.41 0.45,0.55 5,8.65 10.1,18 15.21,27.85 17.27,30.95 20.81,31.31 2.33,0.24 3.42,-0.27 4.66,-2.15 1.56,-2.38 1.43,-2.79 -3.92,-12.31 -3.04,-5.42 -9.7,-17.42 -14.8,-26.68 l -9.27,-16.83 -27.72,-13.92 c -15.25,-7.66 -28.53,-13.91 -29.5,-13.91 -0.98,0.01 -14.51,6.45 -30.06,14.31 l -28.28,14.29 -13.97,25.66 c -7.68,14.11 -13.97,26.35 -13.97,27.19 0,1.88 3.51,5.54 5.31,5.54 0.72,0 2.01,-0.56 2.86,-1.25 z m -158.36,-11.5 0.3,-4.25 H 244.56 240 v 3.83 c 0,4.78 0.56,5.34 4.96,4.97 3.39,-0.29 3.55,-0.48 3.85,-4.55 z M 249,506 v -9 h -9 -9 v 9 9 h 9 9 z m 23,0 v -9 h -9 -9 v 9 9 h 9 9 z m 22,0 v -9 h -9 -9 v 9 9 h 9 9 z m 22,0 v -9 h -8.5 -8.5 v 9 9 h 8.5 8.5 z m -90,-8 v -6 h -6 -6 v 6 6 h 6 6 z m 23,-14 v -9 h -9 -9 v 8.33 c 0,4.59 0.3,8.64 0.67,9 0.36,0.37 4.41,0.67 9,0.67 H 249 Z m 22.79,-0.25 0.29,-8.75 H 263.04 254 v 8.33 c 0,4.59 0.32,8.65 0.7,9.04 0.39,0.39 4.33,0.58 8.75,0.42 l 8.05,-0.29 z M 294,484 v -9 h -9 -9 v 8.33 c 0,4.59 0.3,8.64 0.67,9 0.36,0.37 4.41,0.67 9,0.67 H 294 Z m -67.2,-15.3 0.29,-6.8 -6.29,0.3 -6.3,0.3 -0.31,5.38 c -0.45,7.91 -0.15,8.27 6.55,7.92 l 5.76,-0.3 z m 45.2,-7.84 v -9.13 l -4.64,0.63 c -2.55,0.35 -6.6,0.64 -9,0.64 H 254 v 8.5 8.5 h 9 9 z m 22,0.1 v -9.04 l -8.75,0.29 -8.75,0.29 -0.29,8.75 -0.29,8.75 h 9.04 9.04 z m 22,0.04 v -9 h -8.5 -8.5 v 9 9 h 8.5 8.5 z m -70.19,-15.25 c -0.31,-4.23 -0.33,-4.25 -4.56,-4.56 l -4.25,-0.3 v 4.55 4.56 h 4.56 4.55 z M 272,439 v -9 h -9 -9 v 9 9 h 9 9 z m 22,0 v -9 h -9 -9 v 9 9 h 9 9 z m 22,0 v -9 h -8.5 -8.5 v 9 9 h 8.5 8.5 z m 300,4.25 c 0,-4.5 -5.37,-14.55 -9.78,-18.33 -6.05,-5.18 -12.67,-7.21 -21.98,-6.74 -9.35,0.47 -14.05,2.53 -20.24,8.86 -4.42,4.51 -8.02,12.02 -8,16.71 V 446 h 30 30 z m -263.19,-8 0.3,-4.25 H 348.56 344 v 4.56 4.55 l 4.25,-0.3 c 4.23,-0.31 4.25,-0.33 4.56,-4.56 z M 272,417 v -9 h -9 -9 v 9 9 h 9 9 z m 22,0 v -9 h -9 -9 v 8.33 c 0,4.59 0.3,8.64 0.67,9 0.36,0.37 4.41,0.67 9,0.67 H 294 Z m 22,0 v -9 h -8.5 -8.5 v 9 9 h 8.5 8.5 z m 22.39,7.42 c 0.34,-0.87 0.61,-4.92 0.61,-9 V 408 h -9 -9 v 9 9 h 8.39 c 6.73,0 8.52,-0.31 9,-1.58 z m 13.6,1.33 c -0.01,-0.14 -0.69,-2.5 -1.53,-5.25 -0.83,-2.75 -1.97,-6.69 -2.53,-8.75 -0.73,-2.72 -1.55,-3.75 -2.97,-3.75 -1.8,0 -1.96,0.73 -1.96,9 v 9 h 4.5 c 2.48,0 4.5,-0.11 4.49,-0.25 z M 294,394.5 V 386 h -9 -9 v 8.5 8.5 h 9 9 z m 22,0 V 386 h -8.5 -8.5 v 8.5 8.5 h 8.5 8.5 z m 23,0 V 386 h -9 -9 v 8.5 8.5 h 9 9 z m -75,-10 c 0,-1.07 -1.07,-1.49 -3.75,-1.47 -3.51,0.03 -3.63,0.13 -1.81,1.5 2.52,1.9 5.56,1.89 5.56,-0.03 z M 280.58,384 H 285 v -6.5 -6.5 h -6.5 -6.5 v 6.33 c 0,6.69 0.53,8.06 2.78,7.2 0.76,-0.29 3.37,-0.53 5.8,-0.53 z M 316,372 v -9 h -8.5 -8.5 v 9 9 h 8.5 8.5 z m 23,0 v -9 h -9 -9 v 9 9 h 9 9 z m -73.48,6.35 c 0.7,-0.27 1.46,-2.03 1.68,-3.92 0.39,-3.34 0.31,-3.43 -3.18,-3.43 -3.07,0 -3.75,0.43 -4.72,3.03 -0.63,1.66 -1.52,2.93 -1.97,2.81 -1.88,-0.49 -9.33,1.41 -9.33,2.38 0,1 14.52,0.29 17.52,-0.87 z m 73.27,-28.6 0.29,-8.75 H 330.04 321 v 8.33 c 0,4.59 0.32,8.65 0.7,9.04 0.39,0.39 4.33,0.58 8.75,0.42 l 8.05,-0.29 z m 101.14,-11.7 c 8.46,-2.17 15.77,-4.35 16.25,-4.83 1.07,-1.07 0.01,-4.22 -1.41,-4.22 -1.75,0 -29.18,7.23 -31.02,8.17 -2.02,1.04 -2.38,4.83 -0.47,4.83 0.71,0 8.2,-1.78 16.65,-3.95 z m 157.62,0.72 c 2.77,-1.43 7,-4.55 9.39,-6.93 4.26,-4.25 11.06,-16.56 11.06,-20.03 0,-2.87 -12.61,-6.23 -20.56,-5.49 -7.82,0.73 -16.93,5.12 -22.47,10.83 -4.29,4.42 -12.52,19.73 -11.25,20.94 2.34,2.23 11.35,3.86 19.78,3.58 7.34,-0.25 9.93,-0.78 14.05,-2.9 z m 77.62,0.58 c 1.01,-0.92 1.83,-2.24 1.83,-2.95 0,-0.71 -3.71,-4.14 -8.25,-7.63 -13.23,-10.16 -22.8,-16.04 -37.07,-22.78 -14.03,-6.61 -24.08,-10.27 -41.18,-14.98 -27.18,-7.48 -44.47,-9.53 -73.92,-8.73 -19.59,0.53 -41.65,3.39 -45.58,5.91 -1.24,0.79 -1.2,0.87 0.22,0.43 0.95,-0.3 10.4,-1.05 21,-1.67 64.49,-3.8 127.32,14.22 172.2,49.41 6.46,5.06 7.99,5.48 10.75,2.99 z m -259.23,-9.91 c 9.11,-2.5 18.92,-5.21 21.81,-6.02 3.99,-1.12 5.25,-1.93 5.25,-3.39 0,-1.05 -0.39,-2.15 -0.87,-2.45 -0.48,-0.29 -4.64,0.53 -9.25,1.84 -4.61,1.3 -13.55,3.8 -19.88,5.54 -17.74,4.88 -18,4.98 -18,7.12 0,2.8 2.23,2.52 20.94,-2.64 z m 140.59,0.17 c 6.75,-3.08 12.42,-8.27 15.76,-14.39 2.91,-5.36 6.08,-17.25 4.9,-18.43 -0.4,-0.4 -3.69,-1.15 -7.3,-1.66 -11.57,-1.64 -21.72,1.64 -29.68,9.61 -4.61,4.61 -10.89,16.54 -11.87,22.52 -0.57,3.53 -0.52,3.59 3.79,4.61 6.71,1.6 18.33,0.52 24.4,-2.26 z m -80.78,-3.13 c 6.75,-2 14.12,-7.96 17.4,-14.06 3.08,-5.73 5.18,-14.43 4.69,-19.42 l -0.34,-3.5 -7,0.07 c -8.84,0.09 -14.4,2.48 -20.73,8.92 -5.6,5.69 -8.48,12.59 -9.41,22.54 l -0.65,6.97 h 5.46 c 3.01,0 7.77,-0.68 10.58,-1.52 z m 41.39,-1.36 c 11.2,-5.4 18.12,-15.48 19.44,-28.33 l 0.68,-6.63 -4.63,-0.69 c -19.56,-2.94 -34.66,10.55 -39.07,34.9 l -0.7,3.87 9.82,-0.44 c 7.46,-0.34 10.93,-0.98 14.46,-2.68 z M 380.67,311.05 c 5.59,-1.61 11.78,-3.23 13.75,-3.6 2.92,-0.55 3.58,-1.11 3.58,-3.06 0,-2.95 0.11,-2.95 -12.32,0.15 -16.38,4.09 -19.68,5.36 -19.68,7.54 0,2.66 2.52,2.48 14.67,-1.03 z m 63.45,-1.57 c 5.86,-2 13.76,-9 17.13,-15.19 l 2.69,-4.95 -3.22,-3.12 c -4.17,-4.04 -11.51,-7.24 -18.16,-7.93 -10.9,-1.12 -24.81,6.39 -33.78,18.24 -2.07,2.73 -3.77,5.22 -3.77,5.52 -0.01,0.86 8.93,5.06 14.99,7.05 6.83,2.23 18.16,2.4 24.12,0.38 z M 621.7,293.25 c 0.44,-2.06 0.79,-7.58 0.78,-12.25 -0.02,-7.35 -0.41,-9.23 -2.84,-13.88 -4.25,-8.14 -10.69,-14.42 -18.94,-18.45 -3.96,-1.94 -8.53,-3.67 -10.15,-3.85 -2.66,-0.29 -3.04,0.04 -3.76,3.18 -0.44,1.93 -0.85,7.32 -0.91,12 -0.18,13.44 4.61,23.21 14.85,30.31 4.56,3.16 13.59,6.6 17.47,6.65 2.33,0.03 2.82,-0.48 3.5,-3.71 z m -40.9,-19.62 c -0.33,-6.95 -0.97,-10.18 -2.71,-13.52 -5.43,-10.47 -18.91,-19.49 -30.99,-20.76 l -6.1,-0.63 0.01,7.39 c 0.03,17.29 7.22,29.81 20.28,35.32 7.88,3.32 17.84,4.75 19.07,2.74 0.48,-0.77 0.68,-5.51 0.44,-10.54 z m -84.7,7.12 c 3.86,-1.19 4.04,-1.42 3.54,-4.54 -0.78,-4.89 -4.91,-13.31 -8.56,-17.47 -6.78,-7.71 -22.68,-11.85 -33.88,-8.8 -4.95,1.34 -4.95,1.56 -0.01,11.39 4.95,9.87 12.81,16.99 21.81,19.73 3.96,1.21 12.66,1.05 17.1,-0.31 z m -92.88,-3.12 c 7.85,-1.86 18.44,-4.16 23.53,-5.13 8.74,-1.65 9.25,-1.89 9.25,-4.25 0,-2.39 -0.2,-2.47 -4.25,-1.84 -11.01,1.73 -44.93,9.56 -46.13,10.65 -1.26,1.15 0.03,3.94 1.82,3.94 0.83,0 7.93,-1.52 15.78,-3.37 z m 137.42,0.88 c 0.95,-2.48 -1.59,-14.48 -4.1,-19.4 -5.58,-10.9 -18.59,-18.11 -32.7,-18.11 -6.82,0 -6.84,0.01 -6.84,2.79 0,8.89 5.89,22.23 12.21,27.68 7.8,6.73 12.11,8.27 23.57,8.43 5.6,0.08 7.41,-0.24 7.86,-1.39 z M 431,257.13 c 13.14,-2.49 14.53,-2.96 14.82,-4.94 0.41,-2.8 -0.94,-2.81 -15.86,-0.13 -16.95,3.05 -18.96,3.69 -18.96,5.98 0,2.6 2,2.51 20,-0.91 z m 202.22,465.31 c -2.09,-1.46 -2.22,-2.28 -2.22,-13.84 0,-10.64 0.25,-12.51 1.83,-13.95 2.4,-2.17 5.46,-2.1 7.52,0.18 1.34,1.48 1.65,4.04 1.65,13.5 0,10.34 -0.23,11.9 -2,13.67 -2.41,2.41 -3.84,2.5 -6.78,0.44 z m -318.7,-14.41 c -0.52,-0.84 3.28,-21.82 4.16,-22.95 0.75,-0.96 1.4,1.08 3.31,10.35 2.84,13.81 2.88,13.57 -2.43,13.57 -2.44,0 -4.71,-0.44 -5.04,-0.97 z m 43.15,14.3 C 357.3,721.97 357,711.62 357,699.33 V 677 h 4.57 c 9.25,0 10.43,2.56 10.43,22.68 0,15.36 -1.06,20.21 -4.85,22.24 -2.23,1.19 -8.43,1.46 -9.48,0.41 z m 171.4,-0.96 c -1.81,-2.3 -2.07,-4.03 -2.07,-13.5 0,-9.54 0.25,-11.12 2,-12.87 2.35,-2.35 4.87,-2.55 7.56,-0.58 1.62,1.19 2,2.91 2.29,10.55 0.19,5.02 0.06,10.67 -0.29,12.55 -1.23,6.58 -5.86,8.46 -9.49,3.85 z m 39.38,0.18 c -2.28,-2.29 -2.45,-3.17 -2.45,-12.57 0,-12.44 1.46,-15.93 6.69,-15.96 4.14,-0.03 5.31,3.42 5.31,15.7 0,9.95 -0.24,11.52 -2,13.28 -2.64,2.64 -4.57,2.52 -7.55,-0.45 z M 477.64,519.4 c -3.83,-2.6 -6.64,-7.46 -6.64,-11.48 0,-3.29 4.16,-9.95 7.19,-11.52 4.17,-2.16 12.03,-1.8 15.2,0.69 7.8,6.14 7.43,17.77 -0.73,22.81 -4.71,2.91 -10.27,2.73 -15.02,-0.5 z"
         fill="#fdfefe"
         id="path7" /></clipPath><clipPath
       clipPathUnits="userSpaceOnUse"
       id="clipPath8"><path
         d="m 339,363 v 18 h -18 v -18 z m -67,45 v 18 h -18 v -18 z m 0,22 v 18 h -18 v -18 z m 22,0 v 18 h -18 v -18 z m -45,67 v 18 h -18 v -18 z m 23,0 v 18 h -18 v -18 z m 22,0 v 18 h -18 v -18 z m 0,-89 v 18 h -8.33 c -4.59,0 -8.64,-0.3 -9,-0.67 -0.37,-0.36 -0.67,-4.41 -0.67,-9 V 408 Z m -45,67 v 18 h -8.33 c -4.59,0 -8.64,-0.3 -9,-0.67 -0.37,-0.36 -0.67,-4.41 -0.67,-9 V 475 Z m 45,0 v 18 h -8.33 c -4.59,0 -8.64,-0.3 -9,-0.67 -0.37,-0.36 -0.67,-4.41 -0.67,-9 V 475 Z m 44.39,-50.58 c -0.48,1.27 -2.27,1.58 -9,1.58 H 321 v -18 h 18 v 7.42 c 0,4.08 -0.27,8.13 -0.61,9 z M 294,451.92 V 470 h -18.08 l 0.58,-17.5 z m -21.92,68.08 -0.58,17.5 -8.05,0.29 c -4.42,0.16 -8.36,-0.03 -8.75,-0.42 -0.38,-0.39 -0.7,-4.45 -0.7,-9.04 V 520 Z m 0,-45 -0.58,17.5 -8.05,0.29 c -4.42,0.16 -8.36,-0.03 -8.75,-0.42 -0.38,-0.39 -0.7,-4.45 -0.7,-9.04 V 475 Z m 67,-134 -0.58,17.5 -8.05,0.29 c -4.42,0.16 -8.36,-0.03 -8.75,-0.42 -0.38,-0.39 -0.7,-4.45 -0.7,-9.04 V 341 Z M 272,451.73 V 470 h -18 v -17 h 4.36 c 2.4,0 6.45,-0.29 9,-0.64 z M 316,363 v 18 h -17 v -18 z m -22,23 v 17 h -18 v -17 z m 45,0 v 17 h -18 v -17 z m -23,22 v 18 h -17 v -18 z m 0,22 v 18 h -17 v -18 z m 0,22 v 18 h -17 v -18 z m 0,45 v 18 h -17 v -18 z m 0,-111 v 17 h -17 v -17 z m -35,156 v 15 h -16 v -15 z m 17,38 v 15 h -6.83 c -3.76,0 -7.14,-0.3 -7.5,-0.67 -0.37,-0.36 -0.67,-3.74 -0.67,-7.5 V 580 Z m 1,-55 v 13 H 285 V 525 Z M 280.58,384 c -2.43,0 -5.04,0.24 -5.8,0.53 -2.25,0.86 -2.78,-0.51 -2.78,-7.2 V 371 h 13 v 13 z m -53.78,84.7 -0.3,6.8 -5.76,0.3 c -6.7,0.35 -7,-0.01 -6.55,-7.92 l 0.31,-5.38 6.3,-0.3 6.29,-0.3 z M 233,539 v 13 h -12 v -13 z m 46.16,31.5 -0.33,6.5 -4.67,-0.08 c -6.91,-0.12 -7.16,-0.36 -7.16,-7 V 564 h 6.25 6.25 z M 226,492 v 12 H 214 V 492 Z M 351.99,425.75 C 352,425.89 349.98,426 347.5,426 H 343 v -9 c 0,-8.27 0.16,-9 1.96,-9 1.42,0 2.24,1.03 2.97,3.75 0.56,2.06 1.7,6 2.53,8.75 0.84,2.75 1.52,5.11 1.53,5.25 z m -56.19,181.5 -0.3,5.25 -4.04,0.3 c -2.22,0.16 -4.35,-0.03 -4.75,-0.42 -0.39,-0.39 -0.71,-2.89 -0.71,-5.55 V 602 h 10.1 z m 57.01,-172 c -0.31,4.23 -0.33,4.25 -4.56,4.56 l -4.25,0.3 V 431 h 9.11 z m -107,10.5 0.3,4.25 H 237 v -9.11 l 4.25,0.3 c 4.23,0.31 4.25,0.33 4.56,4.56 z m 3,79.5 c -0.3,4.07 -0.46,4.26 -3.85,4.55 -4.4,0.37 -4.96,-0.19 -4.96,-4.97 V 521 h 9.11 z M 274,589.5 c 0,4.43 -0.05,4.5 -3.33,4.5 -4.23,0 -4.67,-0.49 -4.67,-5.17 0,-3.8 0.03,-3.83 4,-3.83 h 4 z m 35.81,39.69 c -0.3,4.17 -0.43,4.32 -3.97,4.61 -4.19,0.35 -4.53,-0.02 -4.32,-4.8 0.16,-3.37 0.32,-3.51 4.38,-3.81 l 4.22,-0.31 z m -44.2,-250.96 c -0.61,0.41 -2.12,0.75 -3.36,0.75 C 260.29,379 260,378.49 260,375 c 0,-3.97 0.03,-4 3.83,-4 3.74,0 3.81,0.07 3.36,3.25 -0.26,1.79 -0.97,3.58 -1.58,3.98 z m -9.61,0.88 c 0,0.49 -1.8,0.89 -4,0.89 -4.52,0 -5.39,-1.5 -1.31,-2.28 2.99,-0.57 5.31,0.03 5.31,1.39 z m 331.97,228.16 c -0.01,0.19 -0.01,0.39 -0.02,0.6 0,0.1 0,0.19 -0.01,0.29 0.01,-0.3 0.02,-0.6 0.03,-0.89 z"
         fill="#3d566d"
         id="path8" /></clipPath><clipPath
       clipPathUnits="userSpaceOnUse"
       id="clipPath9"><rect
         style="fill:#669999;fill-opacity:1;fill-rule:nonzero;stroke:#37abc8;stroke-width:2.96247"
         id="rect9"
         width="255.81889"
         height="260.56177"
         x="385.90088"
         y="393.80566"
         ry="80.65007" /></clipPath><clipPath
       clipPathUnits="userSpaceOnUse"
       id="clipPath10"><rect
         style="fill:#669999;fill-opacity:1;fill-rule:nonzero;stroke:#37abc8;stroke-width:2.7603"
         id="rect11"
         width="513.71674"
         height="93.182709"
         x="257.74246"
         y="657.72406"
         ry="0" /></clipPath><clipPath
       clipPathUnits="userSpaceOnUse"
       id="clipPath13"><rect
         style="display:none;fill:#669999;fill-opacity:1;fill-rule:nonzero;stroke:#37abc8;stroke-width:2.6402"
         id="rect13"
         width="513.83685"
         height="363.64609"
         x="586.52106"
         y="829.98816"
         d="M 586.52106,829.98816 H 1100.3579 V 1193.6342 H 586.52106 Z" /><path
         id="lpe_path-effect13"
         style="fill:#669999;fill-opacity:1;fill-rule:nonzero;stroke:#37abc8;stroke-width:2.6402"
         class="powerclip"
         d="m 462,543 h 749.1013 v 825.7118 H 462 Z M 586.52106,829.98816 V 1193.6342 H 1100.3579 V 829.98816 Z" /></clipPath><rect
       x="33.537117"
       y="228.0524"
       width="15.650655"
       height="17.327511"
       id="rect14-9" /><rect
       x="33.537117"
       y="228.0524"
       width="15.650655"
       height="17.327511"
       id="rect14-1" /><rect
       x="33.537117"
       y="228.0524"
       width="15.650655"
       height="17.327511"
       id="rect14-1-9" /><rect
       x="33.537117"
       y="228.0524"
       width="15.650655"
       height="17.327511"
       id="rect14-1-9-2" /><rect
       x="33.537117"
       y="228.0524"
       width="15.650655"
       height="17.327511"
       id="rect14-1-9-2-8" /><rect
       x="33.537117"
       y="228.0524"
       width="15.650655"
       height="17.327511"
       id="rect14-1-9-2-8-8" /><rect
       x="33.537117"
       y="228.0524"
       width="15.650655"
       height="17.327511"
       id="rect14-1-9-2-8-8-9" /><rect
       x="33.537117"
       y="228.0524"
       width="15.650655"
       height="17.327511"
       id="rect14-1-9-2-8-8-9-9" /><rect
       x="33.537117"
       y="228.0524"
       width="15.650655"
       height="17.327511"
       id="rect14-1-9-2-8-8-9-9-3" /><rect
       x="33.537117"
       y="228.0524"
       width="15.650655"
       height="17.327511"
       id="rect14-1-9-2-8-8-9-9-3-4" /><rect
       x="33.537117"
       y="228.0524"
       width="15.650655"
       height="17.327511"
       id="rect14-1-9-2-8-8-9-9-3-4-4" /></defs><sodipodi:namedview
     id="namedview4"
     pagecolor="#ffffff"
     bordercolor="#000000"
     borderopacity="0.25"
     inkscape:showpageshadow="2"
     inkscape:pageopacity="0.0"
     inkscape:pagecheckerboard="0"
     inkscape:deskcolor="#d1d1d1"
     inkscape:zoom="0.44726563"
     inkscape:cx="261.58952"
     inkscape:cy="276.12227"
     inkscape:window-width="1920"
     inkscape:window-height="1094"
     inkscape:window-x="-11"
     inkscape:window-y="-11"
     inkscape:window-maximized="1"
     inkscape:current-layer="g4" /><g
     id="g4"
     transform="translate(-142.81,-104.1649)"><path
       d="m 852.73,1362.3651 c -7.43,1.83 -23.83,1.79 -32.51,-0.09 -7.9,-1.71 -16.16,-5.85 -49.03,-24.58 -14.02,-7.99 -54.3,-30.85 -89.5,-50.8 -35.2,-19.96 -83.58,-47.42 -107.5,-61.03 -23.93,-13.6 -51.6,-29.19 -61.5,-34.63 -15.84,-8.71 -18.96,-10.86 -26.02,-17.9 -5.89,-5.87 -9.12,-10.13 -12.14,-16 -1.08,-2.1 -2,-3.62 -2.78,-5.2 -4.52,-9.13 -4.53,-20.48 -4.6,-158.98 -0.01,-11.68 -0.01,-24.26 -0.02,-37.82 l -0.13,-181 2.19,-7 c 4.48,-14.3 13.57,-27.67 23.35,-34.39 2.28,-1.57 21.25,-12.52 42.15,-24.34 20.9,-11.81 52.62,-29.81 70.5,-39.99 33.78,-19.22 62.52,-35.55 113.5,-64.45 16.5,-9.36 42.15,-23.91 57,-32.34 14.85,-8.43 29.7,-16.57 33,-18.1 14.92,-6.89 34.94,-7.62 51.31,-1.87 3.02,1.07 16.56,8.19 30.09,15.84 62.44,35.29 117.73,66.6 140.6,79.63 30.69,17.49 90.91,51.65 122.5,69.48 12.92,7.3 25.86,15.07 28.74,17.27 6.33,4.82 14.25,15.24 18.16,23.9 0.79,1.76 1.49,3.13 2.09,4.55 4.1,9.56 4.08,20.89 3.83,167.22 -0.02,9.3 -0.04,19.16 -0.05,29.59 -0.3,179.34 -0.3,180.02 -2.38,186 -4.38,12.63 -11.63,24.1 -19.57,30.95 -5,4.32 -10.7,7.7 -54.82,32.52 -17.88,10.05 -37,20.87 -42.5,24.04 -10.75,6.19 -45.99,26.18 -85.5,48.49 -13.47,7.6 -45.42,25.75 -71,40.33 -52.99,30.19 -69,38.6 -77.46,40.7 z m -28.48,-23.12 c 10.77,2.89 23.11,1.62 32.94,-3.4 4.49,-2.3 33.82,-18.83 82,-46.22 14.03,-7.98 37.65,-21.37 52.5,-29.76 14.85,-8.38 31.95,-18.07 38,-21.52 35.38,-20.18 78.69,-44.76 96.5,-54.76 37.1,-20.82 39.08,-22.05 43.88,-27.34 2.54,-2.8 5.83,-7.53 7.32,-10.5 0.72,-1.46 1.36,-2.58 1.92,-3.74 3.9,-8.15 3.9,-18.18 3.83,-157.67 0,-9.09 0,-18.73 -0.01,-28.96 -0.05,-160.24 -0.18,-173.53 -1.77,-179.62 -2.17,-8.3 -7.33,-16.94 -13.3,-22.28 -2.56,-2.29 -20.92,-13.28 -41,-24.55 -20.01,-11.23 -52.34,-29.51 -71.87,-40.61 -19.53,-11.11 -50.8,-28.89 -69.5,-39.5 -18.7,-10.62 -55.34,-31.46 -81.43,-46.32 -26.09,-14.86 -49.26,-27.68 -51.5,-28.5 -6.72,-2.45 -22.96,-2.67 -30.07,-0.41 -3.3,1.05 -22.65,11.36 -43,22.92 -51.34,29.17 -120.75,68.56 -153.5,87.11 -15.12,8.56 -40.33,22.84 -56,31.73 -15.68,8.88 -35.7,20.15 -44.5,25.04 -22.36,12.41 -29.14,19.18 -33.62,33.57 -1.81,5.84 -1.88,12.47 -1.88,181.79 0,158.69 0.16,176.25 1.61,181.16 4.39,14.79 10.59,21.63 28.89,31.92 7.15,4.01 20.43,11.46 29.5,16.54 17.2,9.63 31.33,17.64 122.5,69.42 30.25,17.18 61.98,35.19 70.5,40.01 8.52,4.83 29.03,16.47 45.56,25.88 18.01,10.25 32.24,17.69 35.5,18.57 z m -45.06,-337.41 v 58 h -40 v -80.8 l 9.66,-17.85 c 5.31,-9.82 10.71,-19.73 12,-22.03 2.21,-3.94 3.67,-4.84 24.83,-15.25 12.37,-6.09 23.18,-11.07 24.01,-11.07 0.83,0 11.37,4.93 23.41,10.95 l 21.89,10.96 2.97,5.29 c 1.63,2.92 7.07,12.76 12.09,21.88 l 9.14,16.59 v 23.33 h -10.37 c -8.99,0 -10.71,0.28 -13.02,2.09 -4.72,3.71 -5.61,6.8 -5.61,19.39 0,8.82 -0.46,12.96 -1.94,17.35 -1.47,4.34 -1.73,6.68 -1.09,9.54 0.95,4.21 3.76,7.91 5.29,6.97 0.55,-0.34 0.79,0.01 0.54,0.77 -0.3,0.92 -2.39,1.49 -6.13,1.69 l -5.67,0.3 v -27.47 c 0,-15.11 -0.27,-28.18 -0.61,-29.05 -0.53,-1.39 -4.21,-1.58 -31,-1.58 z m 135.79,0.93 c -9.44,1.04 -13.62,1.1 -24.54,0.33 l -5.25,-0.36 v -16.9 h 4.58 c 3.72,0 5.12,-0.54 7.5,-2.92 5.48,-5.49 4.62,-7.95 -14.46,-41.08 -2.56,-4.44 -2.6,-4.79 -2.61,-24.76 l -0.01,-20.27 30.17,0.27 30.16,0.26 -0.24,46.99 c -0.13,25.85 -0.34,47.09 -0.45,47.21 -0.54,0.53 -7.44,0.33 -10.05,-0.3 -3.92,-0.94 -5.77,1.48 -4.51,5.88 0.5,1.73 0.57,3.46 0.16,3.86 -0.41,0.39 -5.11,1.2 -10.45,1.79 z m -52.26,59.12 c 1.52,2.95 1.52,2.95 -1.46,2.95 -3.44,0 -3.63,-0.64 -4.47,-15.25 -0.37,-6.4 -0.11,-9.69 0.97,-12.27 1.32,-3.16 1.3,-4.49 -0.24,-12.51 -0.94,-4.93 -2.06,-8.97 -2.48,-8.97 -0.43,0 -0.92,3.94 -1.11,8.75 l -0.33,8.75 -0.2,-10.85 -0.21,-10.85 3.55,-3.55 3.55,-3.55 12.2,0.89 c 6.71,0.48 20.3,0.88 30.2,0.87 18.69,0 23.7,-0.81 26.9,-4.35 1.48,-1.63 1.49,-1.96 0.13,-3.09 -3.15,-2.61 -1.1,-5.3 2.36,-3.11 0.82,0.52 2.54,0.49 4.17,-0.08 1.74,-0.61 4.03,-0.62 6.13,-0.04 1.96,0.54 4.34,0.56 5.73,0.04 3.37,-1.24 3.77,-0.26 1.28,3.12 l -2.16,2.92 3.98,5.03 c 4.52,5.73 4.55,5.81 2.4,8.19 -1.27,1.4 -2.64,1.64 -6.87,1.2 l -5.28,-0.54 -3.08,4.48 c -1.7,2.46 -4.26,7.13 -5.69,10.38 -1.44,3.24 -3.71,7.04 -5.05,8.44 -3.5,3.66 -5.37,17.27 -3,21.86 1.5,2.9 1.5,3.17 -0.07,3.77 -3.28,1.26 -5.38,-3.13 -5.38,-11.23 0,-4.03 -0.42,-7.59 -0.94,-7.91 -1.21,-0.75 -2.44,7.46 -1.75,11.69 0.29,1.8 0.68,4.15 0.86,5.23 0.48,2.86 -2.77,3.16 -4.24,0.4 -0.69,-1.28 -1.13,-5.36 -1.02,-9.44 0.01,-0.54 0.03,-1.06 0.04,-1.55 0.15,-5.1 0.22,-7.74 -1.06,-9.1 -1.38,-1.46 -4.33,-1.44 -10.47,-1.39 -0.55,0.01 -1.13,0.01 -1.74,0.01 -10.92,0.07 -12.36,0.29 -13.9,2.1 -0.94,1.1 -1.73,2.62 -1.75,3.38 -0.02,0.91 -0.76,1.17 -2.23,0.79 -1.21,-0.32 -2.8,-0.07 -3.54,0.54 -0.99,0.82 -1.65,0.81 -2.5,-0.04 -0.64,-0.64 -2.03,-1.16 -3.09,-1.16 -1.69,0 -1.85,0.49 -1.27,4.08 0.36,2.25 1.77,6.3 3.14,9 l 2.49,4.92 h -2.93 c -0.24,0 -0.46,0.01 -0.66,0.01 -0.54,0.02 -0.95,0.04 -1.3,-0.11 -1.24,-0.51 -1.66,-3.05 -4.18,-14.7 -0.69,-3.18 -1.61,-5.15 -2.3,-4.92 -3.53,1.16 -4.84,11.53 -2.13,16.77 z m -131.36,-81.3 c -0.85,0.69 -2.14,1.25 -2.86,1.25 -1.8,0 -5.31,-3.66 -5.31,-5.54 0,-0.84 6.29,-13.08 13.97,-27.19 l 13.97,-25.66 28.28,-14.29 c 15.55,-7.86 29.08,-14.3 30.06,-14.31 0.97,0 14.25,6.25 29.5,13.91 l 27.72,13.92 9.27,16.83 c 5.1,9.26 11.76,21.26 14.8,26.68 5.35,9.52 5.48,9.93 3.92,12.31 -1.24,1.88 -2.33,2.39 -4.66,2.15 -3.54,-0.36 -5.6,-3.46 -20.81,-31.31 -5.1,-9.35 -9.65,-17.45 -10.1,-18 -0.45,-0.55 -11.75,-6.59 -25.12,-13.41 l -24.3,-12.42 -50.98,25.83 -6.31,12 c -11.6,22.05 -19.48,35.99 -21.04,37.25 z m -34.19,192.18 c -3.67,2.04 -6.12,2.51 -15.18,2.88 l -10.8,0.45 v -64.54 l 11.3,0.5 c 13.17,0.58 17.54,2.17 20.93,7.64 2.12,3.39 2.29,4.93 2.58,22.64 0.31,18.4 0.24,19.14 -2.07,23.5 -1.61,3.04 -3.8,5.29 -6.76,6.93 z m 29.02,-16.43 v 19.5 h -10 v -64.1 l 5.11,0.3 5.12,0.3 3.74,9.5 c 2.06,5.22 5.44,13.92 7.52,19.32 2.07,5.4 4.15,9.44 4.62,8.97 0.46,-0.46 0.97,-9.16 1.12,-19.32 l 0.27,-18.47 9.53,-0.61 -0.53,63.61 -4.75,0.3 c -4.42,0.29 -4.83,0.11 -5.8,-2.5 -6.22,-16.78 -14.3,-36.3 -15.03,-36.3 -0.53,0 -0.92,8.33 -0.92,19.5 z m 228.79,25.25 -0.29,9.75 -4.75,0.3 -4.75,0.31 v -62.11 h 4.45 c 3.18,0 4.74,0.5 5.47,1.75 0.56,0.96 1.03,1.26 1.05,0.66 0.05,-1.64 4.65,-3.41 8.85,-3.41 8.28,0 11.27,5.14 11.95,20.52 0.81,18.19 -2.88,26.48 -11.77,26.48 -2.22,0 -4.76,-0.81 -6.27,-2 -1.4,-1.1 -2.8,-2 -3.1,-2 -0.31,0 -0.69,4.39 -0.84,9.75 z m -319.2,-19.25 -3.09,13 -4.66,0.3 c -2.56,0.17 -4.86,-0.06 -5.11,-0.5 -0.25,-0.44 2.97,-14.63 7.16,-31.53 l 7.61,-30.74 5.73,-0.01 c 5.13,-0.02 5.78,0.21 6.24,2.23 0.28,1.24 3.66,14.95 7.52,30.47 3.85,15.53 7.01,28.69 7.01,29.25 0,0.57 -2.23,1.03 -4.96,1.03 -4.9,0 -4.98,-0.05 -5.99,-3.8 -0.56,-2.1 -1.31,-5.26 -1.67,-7.04 l -0.65,-3.24 z m 304.41,-275.25 v 2.75 h -60 v -2.25 c -0.02,-4.69 3.58,-12.2 8,-16.71 6.19,-6.33 10.89,-8.39 20.24,-8.86 9.31,-0.47 15.93,1.56 21.98,6.74 4.41,3.78 9.78,13.83 9.78,18.33 z m -34.9,286.48 c -2.45,1.64 -4.81,2.26 -8.5,2.23 -6.56,-0.05 -10.71,-1.9 -13.7,-6.1 -2.19,-3.07 -2.43,-4.5 -2.69,-16.36 -0.33,-14.8 0.7,-18.23 6.69,-22.23 4.45,-2.98 14.1,-3.17 18.68,-0.38 5.18,3.15 6.42,7.27 6.42,21.26 0,14.08 -1.18,17.76 -6.9,21.58 z m -40.1,0.52 c -4.77,2.38 -12.64,2.27 -16.76,-0.24 -6.15,-3.76 -7.23,-6.94 -7.24,-21.3 0,-10.64 0.32,-13.42 1.92,-16.55 2.82,-5.53 7.2,-7.51 15.43,-6.99 5.85,0.37 7.1,0.82 9.75,3.47 3.81,3.81 4.85,8.23 4.88,20.9 0.02,12.08 -2.18,17.81 -7.98,20.71 z m -69.89,-7.25 -0.61,8.5 -15.56,0.27 c -8.56,0.16 -15.87,-0.03 -16.25,-0.41 -0.38,-0.38 -0.69,-2.25 -0.69,-4.15 0,-2.64 1.83,-6.23 7.67,-15.09 12.66,-19.19 14.62,-22.98 14.67,-28.49 0.05,-5.67 -2.02,-7.98 -6.25,-6.97 -3.91,0.93 -4.95,2.14 -5.28,6.17 l -0.31,3.67 h -5 c -4.91,0 -5.01,-0.06 -5.31,-3.25 -0.38,-3.86 2.75,-9.87 6.62,-12.73 1.85,-1.37 4.7,-2.09 9.18,-2.34 5.54,-0.3 7.03,0 10.01,2 4.47,3.01 7,8.06 7,14 0,5.51 -3.28,12.27 -13.24,27.29 -3.63,5.48 -6.39,10.32 -6.12,10.75 0.26,0.43 4.75,0.78 9.98,0.78 z m -194.58,6 c -0.08,2.24 -0.57,2.53 -4.6,2.8 -2.48,0.16 -4.83,-0.03 -5.22,-0.42 -0.39,-0.39 -0.71,-14.56 -0.71,-31.48 0,-28.47 0.13,-30.8 1.75,-31.2 0.96,-0.24 7.94,-0.5 15.5,-0.58 l 13.75,-0.15 v 9.03 h -20 v 18 h 18.11 l -0.61,8.5 -17.5,0.58 -0.18,11.21 c -0.11,6.17 -0.23,12.33 -0.29,13.71 z m 442.47,-14.5 v 17.5 h -4.33 c -2.39,0 -4.64,-0.3 -5,-0.67 -0.37,-0.36 -0.67,-10.71 -0.67,-23 v -22.33 h 5 c 3.78,0 5,0.37 5,1.5 0,1.93 0.3,1.9 4.23,-0.5 4.92,-3 10.28,-2.64 13.85,0.92 l 2.92,2.93 v 41.26 l -4.75,-0.31 -4.75,-0.3 -0.25,-17.5 c -0.24,-16.41 -0.39,-17.61 -2.36,-19.25 -2.74,-2.27 -4.43,-2.21 -6.89,0.25 -1.85,1.85 -2,3.33 -2,19.5 z m -228.22,3.25 -0.28,13.75 -4.75,0.3 -4.75,0.31 v -64.11 l 7.25,0.01 c 3.99,0 10.99,0.29 15.55,0.65 l 8.3,0.64 -0.6,7.2 -20.58,0.57 0.58,17.43 17.5,0.58 v 3.85 c 0,4.7 -0.77,5.07 -10.55,5.07 h -7.39 z m 123.03,9.5 c -0.3,4.09 -0.44,4.26 -3.81,4.44 -10.06,0.56 -12,-3.24 -12,-23.52 0,-14.83 -0.03,-15.04 -2.25,-15.35 -1.71,-0.24 -2.32,-1.08 -2.56,-3.49 -0.26,-2.67 0.07,-3.23 2,-3.5 2.06,-0.3 2.34,-0.94 2.61,-6.08 l 0.3,-5.75 h 9.8 l 0.3,5.75 c 0.28,5.44 0.45,5.77 3.05,6.07 2.4,0.27 2.75,0.74 2.75,3.75 0,3.14 -0.25,3.43 -3,3.43 h -3 v 13.8 c 0,14.3 0.5,16.2 4.26,16.2 1.56,0 1.81,0.66 1.55,4.25 z m 153,0 c -0.31,4.19 -0.36,4.25 -4.31,4.49 -2.2,0.13 -5.08,-0.37 -6.39,-1.11 -4.45,-2.51 -5.04,-5.05 -5.07,-21.88 l -0.04,-15.75 h -2.5 c -2.18,0 -2.5,-0.44 -2.5,-3.43 0,-2.8 0.42,-3.49 2.25,-3.75 1.99,-0.28 2.28,-0.98 2.55,-6.07 l 0.3,-5.75 h 9.8 l 0.3,5.75 c 0.29,5.47 0.43,5.77 3.11,6.07 2.5,0.29 2.77,0.67 2.5,3.5 -0.26,2.63 -0.78,3.23 -3.06,3.5 l -2.75,0.31 v 13.74 c 0,14.22 0.5,16.13 4.26,16.13 1.56,0 1.81,0.66 1.55,4.25 z m -409.14,-4.92 c 1.05,1.05 7.25,0.78 9.48,-0.41 3.79,-2.03 4.85,-6.88 4.85,-22.24 0,-20.12 -1.18,-22.68 -10.43,-22.68 h -4.57 v 22.33 c 0,12.29 0.3,22.64 0.67,23 z m 150.7,-107.03 c -0.99,0.98 -45.37,0.88 -45.37,-0.11 0,-1.33 21.07,-23.19 22.35,-23.19 1.68,0 23.86,22.45 23.02,23.3 z m -30.73,-95.9 c 4.75,3.23 10.31,3.41 15.02,0.5 8.16,-5.04 8.53,-16.67 0.73,-22.81 -3.17,-2.49 -11.03,-2.85 -15.2,-0.69 -3.03,1.57 -7.19,8.23 -7.19,11.52 0,4.02 2.81,8.88 6.64,11.48 z m 193.1,198.1 -0.24,14 -4.04,0.3 c -2.22,0.16 -4.35,-0.03 -4.75,-0.42 -0.39,-0.39 -0.71,-10.76 -0.71,-23.05 v -22.33 h 5 c 4.71,0 5,0.15 5,2.58 v 2.57 l 3.08,-3.07 c 2.03,-2.04 4.07,-3.08 6,-3.08 2.84,0 2.92,0.14 2.92,5 0,4.99 0,5 -3.31,5 -3.7,0 -7.38,2.82 -8.18,6.28 -0.29,1.22 -0.63,8.52 -0.77,16.22 z m -158.99,-130.5 c 0.13,11.55 -0.1,21 -0.52,21 -1.26,0 -13.55,-11.46 -17.66,-16.48 l -3.85,-4.7 10.37,-10.41 c 5.71,-5.73 10.61,-10.41 10.89,-10.41 0.29,0 0.63,9.45 0.77,21 z m -40.14,10.94 c -5.45,5.53 -10.28,10.06 -10.75,10.06 -0.48,0 -0.86,-9.45 -0.86,-21 0,-11.55 0.29,-21 0.63,-21 0.6,0 20.87,20.99 20.87,21.6 0,0.16 -4.45,4.81 -9.89,10.34 z m 228.16,110.81 -0.27,22.75 -4.75,0.3 -4.75,0.31 v -11.81 c -0.01,-6.49 -0.3,-16.86 -0.66,-23.05 l -0.65,-11.25 h 11.35 z m -204.05,-145.54 9.61,0.29 -9.93,10.39 -9.94,10.38 -9.64,-10.38 -9.64,-10.39 9.97,-0.29 c 5.47,-0.15 14.28,-0.15 19.57,0 z m 88.35,50.1 -1.02,2.69 h -22.05 v -4.95 c 0,-2.73 0.52,-6.1 1.16,-7.5 1.1,-2.42 1.56,-2.55 9.25,-2.56 4.45,-0.01 9.05,-0.27 10.21,-0.59 1.93,-0.51 2.19,-0.05 2.8,4.82 0.38,3.06 0.23,6.56 -0.35,8.09 z m 31.94,-5.56 -0.01,8.25 h -5.88 c -3.54,0 -6.3,-0.51 -6.93,-1.27 -0.72,-0.87 -0.77,-3.62 -0.14,-8.61 0.74,-5.91 1.48,-7.96 3.85,-10.66 1.62,-1.84 4.16,-6.07 5.65,-9.4 1.5,-3.33 3.18,-6.06 3.74,-6.06 0.66,0 0.79,3.4 0.37,9.75 -0.36,5.36 -0.65,13.46 -0.65,18 z m -47.56,113.8 c 2.98,2.97 4.91,3.09 7.55,0.45 1.76,-1.76 2,-3.33 2,-13.28 0,-12.28 -1.17,-15.73 -5.31,-15.7 -5.23,0.03 -6.69,3.52 -6.69,15.96 0,9.4 0.17,10.28 2.45,12.57 z m -39.38,-0.18 c 3.63,4.61 8.26,2.73 9.49,-3.85 0.35,-1.88 0.48,-7.53 0.29,-12.55 -0.29,-7.64 -0.67,-9.36 -2.29,-10.55 -2.69,-1.97 -5.21,-1.77 -7.56,0.58 -1.75,1.75 -2,3.33 -2,12.87 0,9.47 0.26,11.2 2.07,13.5 z m 104.15,1.07 c 2.94,2.06 4.37,1.97 6.78,-0.44 1.77,-1.77 2,-3.33 2,-13.67 0,-9.46 -0.31,-12.02 -1.65,-13.5 -2.06,-2.28 -5.12,-2.35 -7.52,-0.18 -1.58,1.44 -1.83,3.31 -1.83,13.95 0,11.56 0.13,12.38 2.22,13.84 z m -318.7,-14.41 c 0.33,0.53 2.6,0.97 5.04,0.97 h 0.26 c 1.75,0 2.88,0 3.5,-0.56 1.13,-1.03 0.53,-3.98 -1.19,-12.32 l -0.14,-0.69 c -1.91,-9.27 -2.56,-11.31 -3.31,-10.35 -0.88,1.13 -4.68,22.11 -4.16,22.95 z m 385.28,-34.28 -0.3,4.75 -4.75,0.3 -0.22,0.02 c -2.27,0.14 -3.45,0.22 -4.06,-0.33 -0.67,-0.6 -0.67,-1.94 -0.67,-4.74 v -0.25 c 0,-1.38 0.04,-2.95 0.1,-3.5 0.06,-0.55 2.37,-1 5.15,-1 h 5.06 z m -170.1,-71.58 c -0.56,4.21 -1.82,6.37 -3.02,5.18 -1.14,-1.14 -0.76,-5.92 0.75,-9.49 1.18,-2.8 1.54,-3.06 2.12,-1.56 0.39,0.99 0.45,3.63 0.15,5.87 z m 25.3,9.27 c 0,5.92 -2.25,5.65 -4.01,-0.47 -0.78,-2.71 -0.64,-2.97 1.58,-2.97 2.1,0 2.43,0.46 2.43,3.44 z m -291,-226.94 c 0,1.92 -3.04,1.93 -5.56,0.03 -1.82,-1.37 -1.7,-1.47 1.81,-1.5 2.68,-0.02 3.75,0.4 3.75,1.47 z"
       fill="rgb(47,92,63)"
       id="path1-6"
       style="fill:#003333;fill-opacity:1"
       clip-path="url(#clipPath13)"
       inkscape:path-effect="#path-effect13"
       inkscape:original-d="m 852.73,1362.3651 c -7.43,1.83 -23.83,1.79 -32.51,-0.09 -7.9,-1.71 -16.16,-5.85 -49.03,-24.58 -14.02,-7.99 -54.3,-30.85 -89.5,-50.8 -35.2,-19.96 -83.58,-47.42 -107.5,-61.03 -23.93,-13.6 -51.6,-29.19 -61.5,-34.63 -15.84,-8.71 -18.96,-10.86 -26.02,-17.9 -5.89,-5.87 -9.12,-10.13 -12.14,-16 -1.08,-2.1 -2,-3.62 -2.78,-5.2 -4.52,-9.13 -4.53,-20.48 -4.6,-158.98 -0.01,-11.68 -0.01,-24.26 -0.02,-37.82 l -0.13,-181 2.19,-7 c 4.48,-14.3 13.57,-27.67 23.35,-34.39 2.28,-1.57 21.25,-12.52 42.15,-24.34 20.9,-11.81 52.62,-29.81 70.5,-39.99 33.78,-19.22 62.52,-35.55 113.5,-64.45 16.5,-9.36 42.15,-23.91 57,-32.34 14.85,-8.43 29.7,-16.57 33,-18.1 14.92,-6.89 34.94,-7.62 51.31,-1.87 3.02,1.07 16.56,8.19 30.09,15.84 62.44,35.29 117.73,66.6 140.6,79.63 30.69,17.49 90.91,51.65 122.5,69.48 12.92,7.3 25.86,15.07 28.74,17.27 6.33,4.82 14.25,15.24 18.16,23.9 0.79,1.76 1.49,3.13 2.09,4.55 4.1,9.56 4.08,20.89 3.83,167.22 -0.02,9.3 -0.04,19.16 -0.05,29.59 -0.3,179.34 -0.3,180.02 -2.38,186 -4.38,12.63 -11.63,24.1 -19.57,30.95 -5,4.32 -10.7,7.7 -54.82,32.52 -17.88,10.05 -37,20.87 -42.5,24.04 -10.75,6.19 -45.99,26.18 -85.5,48.49 -13.47,7.6 -45.42,25.75 -71,40.33 -52.99,30.19 -69,38.6 -77.46,40.7 z m -28.48,-23.12 c 10.77,2.89 23.11,1.62 32.94,-3.4 4.49,-2.3 33.82,-18.83 82,-46.22 14.03,-7.98 37.65,-21.37 52.5,-29.76 14.85,-8.38 31.95,-18.07 38,-21.52 35.38,-20.18 78.69,-44.76 96.5,-54.76 37.1,-20.82 39.08,-22.05 43.88,-27.34 2.54,-2.8 5.83,-7.53 7.32,-10.5 0.72,-1.46 1.36,-2.58 1.92,-3.74 3.9,-8.15 3.9,-18.18 3.83,-157.67 0,-9.09 0,-18.73 -0.01,-28.96 -0.05,-160.24 -0.18,-173.53 -1.77,-179.62 -2.17,-8.3 -7.33,-16.94 -13.3,-22.28 -2.56,-2.29 -20.92,-13.28 -41,-24.55 -20.01,-11.23 -52.34,-29.51 -71.87,-40.61 -19.53,-11.11 -50.8,-28.89 -69.5,-39.5 -18.7,-10.62 -55.34,-31.46 -81.43,-46.32 -26.09,-14.86 -49.26,-27.68 -51.5,-28.5 -6.72,-2.45 -22.96,-2.67 -30.07,-0.41 -3.3,1.05 -22.65,11.36 -43,22.92 -51.34,29.17 -120.75,68.56 -153.5,87.11 -15.12,8.56 -40.33,22.84 -56,31.73 -15.68,8.88 -35.7,20.15 -44.5,25.04 -22.36,12.41 -29.14,19.18 -33.62,33.57 -1.81,5.84 -1.88,12.47 -1.88,181.79 0,158.69 0.16,176.25 1.61,181.16 4.39,14.79 10.59,21.63 28.89,31.92 7.15,4.01 20.43,11.46 29.5,16.54 17.2,9.63 31.33,17.64 122.5,69.42 30.25,17.18 61.98,35.19 70.5,40.01 8.52,4.83 29.03,16.47 45.56,25.88 18.01,10.25 32.24,17.69 35.5,18.57 z m -45.06,-337.41 v 58 h -40 v -80.8 l 9.66,-17.85 c 5.31,-9.82 10.71,-19.73 12,-22.03 2.21,-3.94 3.67,-4.84 24.83,-15.25 12.37,-6.09 23.18,-11.07 24.01,-11.07 0.83,0 11.37,4.93 23.41,10.95 l 21.89,10.96 2.97,5.29 c 1.63,2.92 7.07,12.76 12.09,21.88 l 9.14,16.59 v 23.33 h -10.37 c -8.99,0 -10.71,0.28 -13.02,2.09 -4.72,3.71 -5.61,6.8 -5.61,19.39 0,8.82 -0.46,12.96 -1.94,17.35 -1.47,4.34 -1.73,6.68 -1.09,9.54 0.95,4.21 3.76,7.91 5.29,6.97 0.55,-0.34 0.79,0.01 0.54,0.77 -0.3,0.92 -2.39,1.49 -6.13,1.69 l -5.67,0.3 v -27.47 c 0,-15.11 -0.27,-28.18 -0.61,-29.05 -0.53,-1.39 -4.21,-1.58 -31,-1.58 z m 135.79,0.93 c -9.44,1.04 -13.62,1.1 -24.54,0.33 l -5.25,-0.36 v -16.9 h 4.58 c 3.72,0 5.12,-0.54 7.5,-2.92 5.48,-5.49 4.62,-7.95 -14.46,-41.08 -2.56,-4.44 -2.6,-4.79 -2.61,-24.76 l -0.01,-20.27 30.17,0.27 30.16,0.26 -0.24,46.99 c -0.13,25.85 -0.34,47.09 -0.45,47.21 -0.54,0.53 -7.44,0.33 -10.05,-0.3 -3.92,-0.94 -5.77,1.48 -4.51,5.88 0.5,1.73 0.57,3.46 0.16,3.86 -0.41,0.39 -5.11,1.2 -10.45,1.79 z m -52.26,59.12 c 1.52,2.95 1.52,2.95 -1.46,2.95 -3.44,0 -3.63,-0.64 -4.47,-15.25 -0.37,-6.4 -0.11,-9.69 0.97,-12.27 1.32,-3.16 1.3,-4.49 -0.24,-12.51 -0.94,-4.93 -2.06,-8.97 -2.48,-8.97 -0.43,0 -0.92,3.94 -1.11,8.75 l -0.33,8.75 -0.2,-10.85 -0.21,-10.85 3.55,-3.55 3.55,-3.55 12.2,0.89 c 6.71,0.48 20.3,0.88 30.2,0.87 18.69,0 23.7,-0.81 26.9,-4.35 1.48,-1.63 1.49,-1.96 0.13,-3.09 -3.15,-2.61 -1.1,-5.3 2.36,-3.11 0.82,0.52 2.54,0.49 4.17,-0.08 1.74,-0.61 4.03,-0.62 6.13,-0.04 1.96,0.54 4.34,0.56 5.73,0.04 3.37,-1.24 3.77,-0.26 1.28,3.12 l -2.16,2.92 3.98,5.03 c 4.52,5.73 4.55,5.81 2.4,8.19 -1.27,1.4 -2.64,1.64 -6.87,1.2 l -5.28,-0.54 -3.08,4.48 c -1.7,2.46 -4.26,7.13 -5.69,10.38 -1.44,3.24 -3.71,7.04 -5.05,8.44 -3.5,3.66 -5.37,17.27 -3,21.86 1.5,2.9 1.5,3.17 -0.07,3.77 -3.28,1.26 -5.38,-3.13 -5.38,-11.23 0,-4.03 -0.42,-7.59 -0.94,-7.91 -1.21,-0.75 -2.44,7.46 -1.75,11.69 0.29,1.8 0.68,4.15 0.86,5.23 0.48,2.86 -2.77,3.16 -4.24,0.4 -0.69,-1.28 -1.13,-5.36 -1.02,-9.44 0.01,-0.54 0.03,-1.06 0.04,-1.55 0.15,-5.1 0.22,-7.74 -1.06,-9.1 -1.38,-1.46 -4.33,-1.44 -10.47,-1.39 -0.55,0.01 -1.13,0.01 -1.74,0.01 -10.92,0.07 -12.36,0.29 -13.9,2.1 -0.94,1.1 -1.73,2.62 -1.75,3.38 -0.02,0.91 -0.76,1.17 -2.23,0.79 -1.21,-0.32 -2.8,-0.07 -3.54,0.54 -0.99,0.82 -1.65,0.81 -2.5,-0.04 -0.64,-0.64 -2.03,-1.16 -3.09,-1.16 -1.69,0 -1.85,0.49 -1.27,4.08 0.36,2.25 1.77,6.3 3.14,9 l 2.49,4.92 h -2.93 c -0.24,0 -0.46,0.01 -0.66,0.01 -0.54,0.02 -0.95,0.04 -1.3,-0.11 -1.24,-0.51 -1.66,-3.05 -4.18,-14.7 -0.69,-3.18 -1.61,-5.15 -2.3,-4.92 -3.53,1.16 -4.84,11.53 -2.13,16.77 z m -131.36,-81.3 c -0.85,0.69 -2.14,1.25 -2.86,1.25 -1.8,0 -5.31,-3.66 -5.31,-5.54 0,-0.84 6.29,-13.08 13.97,-27.19 l 13.97,-25.66 28.28,-14.29 c 15.55,-7.86 29.08,-14.3 30.06,-14.31 0.97,0 14.25,6.25 29.5,13.91 l 27.72,13.92 9.27,16.83 c 5.1,9.26 11.76,21.26 14.8,26.68 5.35,9.52 5.48,9.93 3.92,12.31 -1.24,1.88 -2.33,2.39 -4.66,2.15 -3.54,-0.36 -5.6,-3.46 -20.81,-31.31 -5.1,-9.35 -9.65,-17.45 -10.1,-18 -0.45,-0.55 -11.75,-6.59 -25.12,-13.41 l -24.3,-12.42 -50.98,25.83 -6.31,12 c -11.6,22.05 -19.48,35.99 -21.04,37.25 z m -34.19,192.18 c -3.67,2.04 -6.12,2.51 -15.18,2.88 l -10.8,0.45 v -64.54 l 11.3,0.5 c 13.17,0.58 17.54,2.17 20.93,7.64 2.12,3.39 2.29,4.93 2.58,22.64 0.31,18.4 0.24,19.14 -2.07,23.5 -1.61,3.04 -3.8,5.29 -6.76,6.93 z m 29.02,-16.43 v 19.5 h -10 v -64.1 l 5.11,0.3 5.12,0.3 3.74,9.5 c 2.06,5.22 5.44,13.92 7.52,19.32 2.07,5.4 4.15,9.44 4.62,8.97 0.46,-0.46 0.97,-9.16 1.12,-19.32 l 0.27,-18.47 9.53,-0.61 -0.53,63.61 -4.75,0.3 c -4.42,0.29 -4.83,0.11 -5.8,-2.5 -6.22,-16.78 -14.3,-36.3 -15.03,-36.3 -0.53,0 -0.92,8.33 -0.92,19.5 z m 228.79,25.25 -0.29,9.75 -4.75,0.3 -4.75,0.31 v -62.11 h 4.45 c 3.18,0 4.74,0.5 5.47,1.75 0.56,0.96 1.03,1.26 1.05,0.66 0.05,-1.64 4.65,-3.41 8.85,-3.41 8.28,0 11.27,5.14 11.95,20.52 0.81,18.19 -2.88,26.48 -11.77,26.48 -2.22,0 -4.76,-0.81 -6.27,-2 -1.4,-1.1 -2.8,-2 -3.1,-2 -0.31,0 -0.69,4.39 -0.84,9.75 z m -319.2,-19.25 -3.09,13 -4.66,0.3 c -2.56,0.17 -4.86,-0.06 -5.11,-0.5 -0.25,-0.44 2.97,-14.63 7.16,-31.53 l 7.61,-30.74 5.73,-0.01 c 5.13,-0.02 5.78,0.21 6.24,2.23 0.28,1.24 3.66,14.95 7.52,30.47 3.85,15.53 7.01,28.69 7.01,29.25 0,0.57 -2.23,1.03 -4.96,1.03 -4.9,0 -4.98,-0.05 -5.99,-3.8 -0.56,-2.1 -1.31,-5.26 -1.67,-7.04 l -0.65,-3.24 z m 304.41,-275.25 v 2.75 h -60 v -2.25 c -0.02,-4.69 3.58,-12.2 8,-16.71 6.19,-6.33 10.89,-8.39 20.24,-8.86 9.31,-0.47 15.93,1.56 21.98,6.74 4.41,3.78 9.78,13.83 9.78,18.33 z m -34.9,286.48 c -2.45,1.64 -4.81,2.26 -8.5,2.23 -6.56,-0.05 -10.71,-1.9 -13.7,-6.1 -2.19,-3.07 -2.43,-4.5 -2.69,-16.36 -0.33,-14.8 0.7,-18.23 6.69,-22.23 4.45,-2.98 14.1,-3.17 18.68,-0.38 5.18,3.15 6.42,7.27 6.42,21.26 0,14.08 -1.18,17.76 -6.9,21.58 z m -40.1,0.52 c -4.77,2.38 -12.64,2.27 -16.76,-0.24 -6.15,-3.76 -7.23,-6.94 -7.24,-21.3 0,-10.64 0.32,-13.42 1.92,-16.55 2.82,-5.53 7.2,-7.51 15.43,-6.99 5.85,0.37 7.1,0.82 9.75,3.47 3.81,3.81 4.85,8.23 4.88,20.9 0.02,12.08 -2.18,17.81 -7.98,20.71 z m -69.89,-7.25 -0.61,8.5 -15.56,0.27 c -8.56,0.16 -15.87,-0.03 -16.25,-0.41 -0.38,-0.38 -0.69,-2.25 -0.69,-4.15 0,-2.64 1.83,-6.23 7.67,-15.09 12.66,-19.19 14.62,-22.98 14.67,-28.49 0.05,-5.67 -2.02,-7.98 -6.25,-6.97 -3.91,0.93 -4.95,2.14 -5.28,6.17 l -0.31,3.67 h -5 c -4.91,0 -5.01,-0.06 -5.31,-3.25 -0.38,-3.86 2.75,-9.87 6.62,-12.73 1.85,-1.37 4.7,-2.09 9.18,-2.34 5.54,-0.3 7.03,0 10.01,2 4.47,3.01 7,8.06 7,14 0,5.51 -3.28,12.27 -13.24,27.29 -3.63,5.48 -6.39,10.32 -6.12,10.75 0.26,0.43 4.75,0.78 9.98,0.78 z m -194.58,6 c -0.08,2.24 -0.57,2.53 -4.6,2.8 -2.48,0.16 -4.83,-0.03 -5.22,-0.42 -0.39,-0.39 -0.71,-14.56 -0.71,-31.48 0,-28.47 0.13,-30.8 1.75,-31.2 0.96,-0.24 7.94,-0.5 15.5,-0.58 l 13.75,-0.15 v 9.03 h -20 v 18 h 18.11 l -0.61,8.5 -17.5,0.58 -0.18,11.21 c -0.11,6.17 -0.23,12.33 -0.29,13.71 z m 442.47,-14.5 v 17.5 h -4.33 c -2.39,0 -4.64,-0.3 -5,-0.67 -0.37,-0.36 -0.67,-10.71 -0.67,-23 v -22.33 h 5 c 3.78,0 5,0.37 5,1.5 0,1.93 0.3,1.9 4.23,-0.5 4.92,-3 10.28,-2.64 13.85,0.92 l 2.92,2.93 v 41.26 l -4.75,-0.31 -4.75,-0.3 -0.25,-17.5 c -0.24,-16.41 -0.39,-17.61 -2.36,-19.25 -2.74,-2.27 -4.43,-2.21 -6.89,0.25 -1.85,1.85 -2,3.33 -2,19.5 z m -228.22,3.25 -0.28,13.75 -4.75,0.3 -4.75,0.31 v -64.11 l 7.25,0.01 c 3.99,0 10.99,0.29 15.55,0.65 l 8.3,0.64 -0.6,7.2 -20.58,0.57 0.58,17.43 17.5,0.58 v 3.85 c 0,4.7 -0.77,5.07 -10.55,5.07 h -7.39 z m 123.03,9.5 c -0.3,4.09 -0.44,4.26 -3.81,4.44 -10.06,0.56 -12,-3.24 -12,-23.52 0,-14.83 -0.03,-15.04 -2.25,-15.35 -1.71,-0.24 -2.32,-1.08 -2.56,-3.49 -0.26,-2.67 0.07,-3.23 2,-3.5 2.06,-0.3 2.34,-0.94 2.61,-6.08 l 0.3,-5.75 h 9.8 l 0.3,5.75 c 0.28,5.44 0.45,5.77 3.05,6.07 2.4,0.27 2.75,0.74 2.75,3.75 0,3.14 -0.25,3.43 -3,3.43 h -3 v 13.8 c 0,14.3 0.5,16.2 4.26,16.2 1.56,0 1.81,0.66 1.55,4.25 z m 153,0 c -0.31,4.19 -0.36,4.25 -4.31,4.49 -2.2,0.13 -5.08,-0.37 -6.39,-1.11 -4.45,-2.51 -5.04,-5.05 -5.07,-21.88 l -0.04,-15.75 h -2.5 c -2.18,0 -2.5,-0.44 -2.5,-3.43 0,-2.8 0.42,-3.49 2.25,-3.75 1.99,-0.28 2.28,-0.98 2.55,-6.07 l 0.3,-5.75 h 9.8 l 0.3,5.75 c 0.29,5.47 0.43,5.77 3.11,6.07 2.5,0.29 2.77,0.67 2.5,3.5 -0.26,2.63 -0.78,3.23 -3.06,3.5 l -2.75,0.31 v 13.74 c 0,14.22 0.5,16.13 4.26,16.13 1.56,0 1.81,0.66 1.55,4.25 z m -409.14,-4.92 c 1.05,1.05 7.25,0.78 9.48,-0.41 3.79,-2.03 4.85,-6.88 4.85,-22.24 0,-20.12 -1.18,-22.68 -10.43,-22.68 h -4.57 v 22.33 c 0,12.29 0.3,22.64 0.67,23 z m 150.7,-107.03 c -0.99,0.98 -45.37,0.88 -45.37,-0.11 0,-1.33 21.07,-23.19 22.35,-23.19 1.68,0 23.86,22.45 23.02,23.3 z m -30.73,-95.9 c 4.75,3.23 10.31,3.41 15.02,0.5 8.16,-5.04 8.53,-16.67 0.73,-22.81 -3.17,-2.49 -11.03,-2.85 -15.2,-0.69 -3.03,1.57 -7.19,8.23 -7.19,11.52 0,4.02 2.81,8.88 6.64,11.48 z m 193.1,198.1 -0.24,14 -4.04,0.3 c -2.22,0.16 -4.35,-0.03 -4.75,-0.42 -0.39,-0.39 -0.71,-10.76 -0.71,-23.05 v -22.33 h 5 c 4.71,0 5,0.15 5,2.58 v 2.57 l 3.08,-3.07 c 2.03,-2.04 4.07,-3.08 6,-3.08 2.84,0 2.92,0.14 2.92,5 0,4.99 0,5 -3.31,5 -3.7,0 -7.38,2.82 -8.18,6.28 -0.29,1.22 -0.63,8.52 -0.77,16.22 z m -158.99,-130.5 c 0.13,11.55 -0.1,21 -0.52,21 -1.26,0 -13.55,-11.46 -17.66,-16.48 l -3.85,-4.7 10.37,-10.41 c 5.71,-5.73 10.61,-10.41 10.89,-10.41 0.29,0 0.63,9.45 0.77,21 z m -40.14,10.94 c -5.45,5.53 -10.28,10.06 -10.75,10.06 -0.48,0 -0.86,-9.45 -0.86,-21 0,-11.55 0.29,-21 0.63,-21 0.6,0 20.87,20.99 20.87,21.6 0,0.16 -4.45,4.81 -9.89,10.34 z m 228.16,110.81 -0.27,22.75 -4.75,0.3 -4.75,0.31 v -11.81 c -0.01,-6.49 -0.3,-16.86 -0.66,-23.05 l -0.65,-11.25 h 11.35 z m -204.05,-145.54 9.61,0.29 -9.93,10.39 -9.94,10.38 -9.64,-10.38 -9.64,-10.39 9.97,-0.29 c 5.47,-0.15 14.28,-0.15 19.57,0 z m 88.35,50.1 -1.02,2.69 h -22.05 v -4.95 c 0,-2.73 0.52,-6.1 1.16,-7.5 1.1,-2.42 1.56,-2.55 9.25,-2.56 4.45,-0.01 9.05,-0.27 10.21,-0.59 1.93,-0.51 2.19,-0.05 2.8,4.82 0.38,3.06 0.23,6.56 -0.35,8.09 z m 31.94,-5.56 -0.01,8.25 h -5.88 c -3.54,0 -6.3,-0.51 -6.93,-1.27 -0.72,-0.87 -0.77,-3.62 -0.14,-8.61 0.74,-5.91 1.48,-7.96 3.85,-10.66 1.62,-1.84 4.16,-6.07 5.65,-9.4 1.5,-3.33 3.18,-6.06 3.74,-6.06 0.66,0 0.79,3.4 0.37,9.75 -0.36,5.36 -0.65,13.46 -0.65,18 z m -47.56,113.8 c 2.98,2.97 4.91,3.09 7.55,0.45 1.76,-1.76 2,-3.33 2,-13.28 0,-12.28 -1.17,-15.73 -5.31,-15.7 -5.23,0.03 -6.69,3.52 -6.69,15.96 0,9.4 0.17,10.28 2.45,12.57 z m -39.38,-0.18 c 3.63,4.61 8.26,2.73 9.49,-3.85 0.35,-1.88 0.48,-7.53 0.29,-12.55 -0.29,-7.64 -0.67,-9.36 -2.29,-10.55 -2.69,-1.97 -5.21,-1.77 -7.56,0.58 -1.75,1.75 -2,3.33 -2,12.87 0,9.47 0.26,11.2 2.07,13.5 z m 104.15,1.07 c 2.94,2.06 4.37,1.97 6.78,-0.44 1.77,-1.77 2,-3.33 2,-13.67 0,-9.46 -0.31,-12.02 -1.65,-13.5 -2.06,-2.28 -5.12,-2.35 -7.52,-0.18 -1.58,1.44 -1.83,3.31 -1.83,13.95 0,11.56 0.13,12.38 2.22,13.84 z m -318.7,-14.41 c 0.33,0.53 2.6,0.97 5.04,0.97 h 0.26 c 1.75,0 2.88,0 3.5,-0.56 1.13,-1.03 0.53,-3.98 -1.19,-12.32 l -0.14,-0.69 c -1.91,-9.27 -2.56,-11.31 -3.31,-10.35 -0.88,1.13 -4.68,22.11 -4.16,22.95 z m 385.28,-34.28 -0.3,4.75 -4.75,0.3 -0.22,0.02 c -2.27,0.14 -3.45,0.22 -4.06,-0.33 -0.67,-0.6 -0.67,-1.94 -0.67,-4.74 v -0.25 c 0,-1.38 0.04,-2.95 0.1,-3.5 0.06,-0.55 2.37,-1 5.15,-1 h 5.06 z m -170.1,-71.58 c -0.56,4.21 -1.82,6.37 -3.02,5.18 -1.14,-1.14 -0.76,-5.92 0.75,-9.49 1.18,-2.8 1.54,-3.06 2.12,-1.56 0.39,0.99 0.45,3.63 0.15,5.87 z m 25.3,9.27 c 0,5.92 -2.25,5.65 -4.01,-0.47 -0.78,-2.71 -0.64,-2.97 1.58,-2.97 2.1,0 2.43,0.46 2.43,3.44 z m -291,-226.94 c 0,1.92 -3.04,1.93 -5.56,0.03 -1.82,-1.37 -1.7,-1.47 1.81,-1.5 2.68,-0.02 3.75,0.4 3.75,1.47 z"
       transform="translate(-324.19,-443.8351)" /><rect
       style="fill:#669999;fill-opacity:1;fill-rule:nonzero;stroke:#37abc8;stroke-width:2.66667"
       id="rect7"
       width="199.20032"
       height="314.61002"
       x="190.50507"
       y="332.00052"
       ry="71.933449"
       clip-path="url(#clipPath8)" /><rect
       style="fill:#cc9900;fill-opacity:1;fill-rule:nonzero;stroke:#37abc8;stroke-width:2.66667"
       id="rect6"
       width="353.34341"
       height="143.8669"
       x="342.27673"
       y="233.19084"
       ry="71.933449"
       clip-path="url(#clipPath6)" /><path
       d="m 528.54,918.53 c -7.43,1.83 -23.83,1.79 -32.51,-0.09 -7.9,-1.71 -16.16,-5.85 -49.03,-24.58 -14.02,-7.99 -54.3,-30.85 -89.5,-50.8 -35.2,-19.96 -83.58,-47.42 -107.5,-61.03 -23.93,-13.6 -51.6,-29.19 -61.5,-34.63 -15.84,-8.71 -18.96,-10.86 -26.02,-17.9 -5.89,-5.87 -9.12,-10.13 -12.14,-16 -1.08,-2.1 -2,-3.62 -2.78,-5.2 -4.52,-9.13 -4.53,-20.48 -4.6,-158.98 -0.01,-11.68 -0.01,-24.26 -0.02,-37.82 l -0.13,-181 2.19,-7 c 4.48,-14.3 13.57,-27.67 23.35,-34.39 2.28,-1.57 21.25,-12.52 42.15,-24.34 20.9,-11.81 52.62,-29.81 70.5,-39.99 33.78,-19.22 62.52,-35.55 113.5,-64.45 16.5,-9.36 42.15,-23.91 57,-32.34 14.85,-8.43 29.7,-16.57 33,-18.1 14.92,-6.89 34.94,-7.62 51.31,-1.87 3.02,1.07 16.56,8.19 30.09,15.84 62.44,35.29 117.73,66.6 140.6,79.63 30.69,17.49 90.91,51.65 122.5,69.48 12.92,7.3 25.86,15.07 28.74,17.27 6.33,4.82 14.25,15.24 18.16,23.9 0.79,1.76 1.49,3.13 2.09,4.55 4.1,9.56 4.08,20.89 3.83,167.22 -0.02,9.3 -0.04,19.16 -0.05,29.59 -0.3,179.34 -0.3,180.02 -2.38,186 -4.38,12.63 -11.63,24.1 -19.57,30.95 -5,4.32 -10.7,7.7 -54.82,32.52 -17.88,10.05 -37,20.87 -42.5,24.04 -10.75,6.19 -45.99,26.18 -85.5,48.49 -13.47,7.6 -45.42,25.75 -71,40.33 -52.99,30.19 -69,38.6 -77.46,40.7 z m -28.48,-23.12 c 10.77,2.89 23.11,1.62 32.94,-3.4 4.49,-2.3 33.82,-18.83 82,-46.22 14.03,-7.98 37.65,-21.37 52.5,-29.76 14.85,-8.38 31.95,-18.07 38,-21.52 35.38,-20.18 78.69,-44.76 96.5,-54.76 37.1,-20.82 39.08,-22.05 43.88,-27.34 2.54,-2.8 5.83,-7.53 7.32,-10.5 0.72,-1.46 1.36,-2.58 1.92,-3.74 3.9,-8.15 3.9,-18.18 3.83,-157.67 0,-9.09 0,-18.73 -0.01,-28.96 -0.05,-160.24 -0.18,-173.53 -1.77,-179.62 -2.17,-8.3 -7.33,-16.94 -13.3,-22.28 -2.56,-2.29 -20.92,-13.28 -41,-24.55 -20.01,-11.23 -52.34,-29.51 -71.87,-40.61 -19.53,-11.11 -50.8,-28.89 -69.5,-39.5 -18.7,-10.62 -55.34,-31.46 -81.43,-46.32 -26.09,-14.86 -49.26,-27.68 -51.5,-28.5 -6.72,-2.45 -22.96,-2.67 -30.07,-0.41 -3.3,1.05 -22.65,11.36 -43,22.92 -51.34,29.17 -120.75,68.56 -153.5,87.11 -15.12,8.56 -40.33,22.84 -56,31.73 -15.68,8.88 -35.7,20.15 -44.5,25.04 -22.36,12.41 -29.14,19.18 -33.62,33.57 -1.81,5.84 -1.88,12.47 -1.88,181.79 0,158.69 0.16,176.25 1.61,181.16 4.39,14.79 10.59,21.63 28.89,31.92 7.15,4.01 20.43,11.46 29.5,16.54 17.2,9.63 31.33,17.64 122.5,69.42 30.25,17.18 61.98,35.19 70.5,40.01 8.52,4.83 29.03,16.47 45.56,25.88 18.01,10.25 32.24,17.69 35.5,18.57 z M 455,558 v 58 h -40 v -80.8 l 9.66,-17.85 c 5.31,-9.82 10.71,-19.73 12,-22.03 2.21,-3.94 3.67,-4.84 24.83,-15.25 12.37,-6.09 23.18,-11.07 24.01,-11.07 0.83,0 11.37,4.93 23.41,10.95 l 21.89,10.96 2.97,5.29 c 1.63,2.92 7.07,12.76 12.09,21.88 L 555,534.67 V 558 h -10.37 c -8.99,0 -10.71,0.28 -13.02,2.09 -4.72,3.71 -5.61,6.8 -5.61,19.39 0,8.82 -0.46,12.96 -1.94,17.35 -1.47,4.34 -1.73,6.68 -1.09,9.54 0.95,4.21 3.76,7.91 5.29,6.97 0.55,-0.34 0.79,0.01 0.54,0.77 -0.3,0.92 -2.39,1.49 -6.13,1.69 l -5.67,0.3 v -27.47 c 0,-15.11 -0.27,-28.18 -0.61,-29.05 -0.53,-1.39 -4.21,-1.58 -31,-1.58 z m 135.79,0.93 c -9.44,1.04 -13.62,1.1 -24.54,0.33 L 561,558.9 V 542 h 4.58 c 3.72,0 5.12,-0.54 7.5,-2.92 5.48,-5.49 4.62,-7.95 -14.46,-41.08 -2.56,-4.44 -2.6,-4.79 -2.61,-24.76 l -0.01,-20.27 30.17,0.27 30.16,0.26 -0.24,46.99 c -0.13,25.85 -0.34,47.09 -0.45,47.21 -0.54,0.53 -7.44,0.33 -10.05,-0.3 -3.92,-0.94 -5.77,1.48 -4.51,5.88 0.5,1.73 0.57,3.46 0.16,3.86 -0.41,0.39 -5.11,1.2 -10.45,1.79 z m -52.26,59.12 c 1.52,2.95 1.52,2.95 -1.46,2.95 -3.44,0 -3.63,-0.64 -4.47,-15.25 -0.37,-6.4 -0.11,-9.69 0.97,-12.27 1.32,-3.16 1.3,-4.49 -0.24,-12.51 -0.94,-4.93 -2.06,-8.97 -2.48,-8.97 -0.43,0 -0.92,3.94 -1.11,8.75 l -0.33,8.75 -0.2,-10.85 -0.21,-10.85 3.55,-3.55 3.55,-3.55 12.2,0.89 c 6.71,0.48 20.3,0.88 30.2,0.87 18.69,0 23.7,-0.81 26.9,-4.35 1.48,-1.63 1.49,-1.96 0.13,-3.09 -3.15,-2.61 -1.1,-5.3 2.36,-3.11 0.82,0.52 2.54,0.49 4.17,-0.08 1.74,-0.61 4.03,-0.62 6.13,-0.04 1.96,0.54 4.34,0.56 5.73,0.04 3.37,-1.24 3.77,-0.26 1.28,3.12 l -2.16,2.92 3.98,5.03 c 4.52,5.73 4.55,5.81 2.4,8.19 -1.27,1.4 -2.64,1.64 -6.87,1.2 l -5.28,-0.54 -3.08,4.48 c -1.7,2.46 -4.26,7.13 -5.69,10.38 -1.44,3.24 -3.71,7.04 -5.05,8.44 -3.5,3.66 -5.37,17.27 -3,21.86 1.5,2.9 1.5,3.17 -0.07,3.77 -3.28,1.26 -5.38,-3.13 -5.38,-11.23 0,-4.03 -0.42,-7.59 -0.94,-7.91 -1.21,-0.75 -2.44,7.46 -1.75,11.69 0.29,1.8 0.68,4.15 0.86,5.23 0.48,2.86 -2.77,3.16 -4.24,0.4 -0.69,-1.28 -1.13,-5.36 -1.02,-9.44 0.01,-0.54 0.03,-1.06 0.04,-1.55 0.15,-5.1 0.22,-7.74 -1.06,-9.1 -1.38,-1.46 -4.33,-1.44 -10.47,-1.39 -0.55,0.01 -1.13,0.01 -1.74,0.01 -10.92,0.07 -12.36,0.29 -13.9,2.1 -0.94,1.1 -1.73,2.62 -1.75,3.38 -0.02,0.91 -0.76,1.17 -2.23,0.79 -1.21,-0.32 -2.8,-0.07 -3.54,0.54 -0.99,0.82 -1.65,0.81 -2.5,-0.04 -0.64,-0.64 -2.03,-1.16 -3.09,-1.16 -1.69,0 -1.85,0.49 -1.27,4.08 0.36,2.25 1.77,6.3 3.14,9 l 2.49,4.92 h -2.93 c -0.24,0 -0.46,0.01 -0.66,0.01 -0.54,0.02 -0.95,0.04 -1.3,-0.11 -1.24,-0.51 -1.66,-3.05 -4.18,-14.7 -0.69,-3.18 -1.61,-5.15 -2.3,-4.92 -3.53,1.16 -4.84,11.53 -2.13,16.77 z m -131.36,-81.3 c -0.85,0.69 -2.14,1.25 -2.86,1.25 -1.8,0 -5.31,-3.66 -5.31,-5.54 0,-0.84 6.29,-13.08 13.97,-27.19 l 13.97,-25.66 28.28,-14.29 c 15.55,-7.86 29.08,-14.3 30.06,-14.31 0.97,0 14.25,6.25 29.5,13.91 l 27.72,13.92 9.27,16.83 c 5.1,9.26 11.76,21.26 14.8,26.68 5.35,9.52 5.48,9.93 3.92,12.31 -1.24,1.88 -2.33,2.39 -4.66,2.15 -3.54,-0.36 -5.6,-3.46 -20.81,-31.31 -5.1,-9.35 -9.65,-17.45 -10.1,-18 -0.45,-0.55 -11.75,-6.59 -25.12,-13.41 l -24.3,-12.42 -50.98,25.83 -6.31,12 c -11.6,22.05 -19.48,35.99 -21.04,37.25 z m -34.19,192.18 c -3.67,2.04 -6.12,2.51 -15.18,2.88 l -10.8,0.45 v -64.54 l 11.3,0.5 c 13.17,0.58 17.54,2.17 20.93,7.64 2.12,3.39 2.29,4.93 2.58,22.64 0.31,18.4 0.24,19.14 -2.07,23.5 -1.61,3.04 -3.8,5.29 -6.76,6.93 z M 402,712.5 V 732 h -10 v -64.1 l 5.11,0.3 5.12,0.3 3.74,9.5 c 2.06,5.22 5.44,13.92 7.52,19.32 2.07,5.4 4.15,9.44 4.62,8.97 0.46,-0.46 0.97,-9.16 1.12,-19.32 l 0.27,-18.47 9.53,-0.61 -0.53,63.61 -4.75,0.3 c -4.42,0.29 -4.83,0.11 -5.8,-2.5 -6.22,-16.78 -14.3,-36.3 -15.03,-36.3 -0.53,0 -0.92,8.33 -0.92,19.5 z m 228.79,25.25 -0.29,9.75 -4.75,0.3 -4.75,0.31 V 686 h 4.45 c 3.18,0 4.74,0.5 5.47,1.75 0.56,0.96 1.03,1.26 1.05,0.66 0.05,-1.64 4.65,-3.41 8.85,-3.41 8.28,0 11.27,5.14 11.95,20.52 0.81,18.19 -2.88,26.48 -11.77,26.48 -2.22,0 -4.76,-0.81 -6.27,-2 -1.4,-1.1 -2.8,-2 -3.1,-2 -0.31,0 -0.69,4.39 -0.84,9.75 z m -319.2,-19.25 -3.09,13 -4.66,0.3 c -2.56,0.17 -4.86,-0.06 -5.11,-0.5 -0.25,-0.44 2.97,-14.63 7.16,-31.53 l 7.61,-30.74 5.73,-0.01 c 5.13,-0.02 5.78,0.21 6.24,2.23 0.28,1.24 3.66,14.95 7.52,30.47 3.85,15.53 7.01,28.69 7.01,29.25 0,0.57 -2.23,1.03 -4.96,1.03 -4.9,0 -4.98,-0.05 -5.99,-3.8 -0.56,-2.1 -1.31,-5.26 -1.67,-7.04 l -0.65,-3.24 z M 616,443.25 V 446 h -60 v -2.25 c -0.02,-4.69 3.58,-12.2 8,-16.71 6.19,-6.33 10.89,-8.39 20.24,-8.86 9.31,-0.47 15.93,1.56 21.98,6.74 4.41,3.78 9.78,13.83 9.78,18.33 z m -34.9,286.48 c -2.45,1.64 -4.81,2.26 -8.5,2.23 -6.56,-0.05 -10.71,-1.9 -13.7,-6.1 -2.19,-3.07 -2.43,-4.5 -2.69,-16.36 -0.33,-14.8 0.7,-18.23 6.69,-22.23 4.45,-2.98 14.1,-3.17 18.68,-0.38 5.18,3.15 6.42,7.27 6.42,21.26 0,14.08 -1.18,17.76 -6.9,21.58 z m -40.1,0.52 c -4.77,2.38 -12.64,2.27 -16.76,-0.24 -6.15,-3.76 -7.23,-6.94 -7.24,-21.3 0,-10.64 0.32,-13.42 1.92,-16.55 2.82,-5.53 7.2,-7.51 15.43,-6.99 5.85,0.37 7.1,0.82 9.75,3.47 3.81,3.81 4.85,8.23 4.88,20.9 0.02,12.08 -2.18,17.81 -7.98,20.71 z m -69.89,-7.25 -0.61,8.5 -15.56,0.27 c -8.56,0.16 -15.87,-0.03 -16.25,-0.41 -0.38,-0.38 -0.69,-2.25 -0.69,-4.15 0,-2.64 1.83,-6.23 7.67,-15.09 12.66,-19.19 14.62,-22.98 14.67,-28.49 0.05,-5.67 -2.02,-7.98 -6.25,-6.97 -3.91,0.93 -4.95,2.14 -5.28,6.17 l -0.31,3.67 h -5 c -4.91,0 -5.01,-0.06 -5.31,-3.25 -0.38,-3.86 2.75,-9.87 6.62,-12.73 1.85,-1.37 4.7,-2.09 9.18,-2.34 5.54,-0.3 7.03,0 10.01,2 4.47,3.01 7,8.06 7,14 0,5.51 -3.28,12.27 -13.24,27.29 -3.63,5.48 -6.39,10.32 -6.12,10.75 0.26,0.43 4.75,0.78 9.98,0.78 z m -194.58,6 c -0.08,2.24 -0.57,2.53 -4.6,2.8 -2.48,0.16 -4.83,-0.03 -5.22,-0.42 -0.39,-0.39 -0.71,-14.56 -0.71,-31.48 0,-28.47 0.13,-30.8 1.75,-31.2 0.96,-0.24 7.94,-0.5 15.5,-0.58 L 297,667.97 V 677 h -20 v 18 h 18.11 l -0.61,8.5 -17.5,0.58 -0.18,11.21 c -0.11,6.17 -0.23,12.33 -0.29,13.71 z M 719,714.5 V 732 h -4.33 c -2.39,0 -4.64,-0.3 -5,-0.67 -0.37,-0.36 -0.67,-10.71 -0.67,-23 V 686 h 5 c 3.78,0 5,0.37 5,1.5 0,1.93 0.3,1.9 4.23,-0.5 4.92,-3 10.28,-2.64 13.85,0.92 l 2.92,2.93 v 41.26 l -4.75,-0.31 -4.75,-0.3 -0.25,-17.5 c -0.24,-16.41 -0.39,-17.61 -2.36,-19.25 -2.74,-2.27 -4.43,-2.21 -6.89,0.25 -1.85,1.85 -2,3.33 -2,19.5 z m -228.22,3.25 -0.28,13.75 -4.75,0.3 -4.75,0.31 V 668 l 7.25,0.01 c 3.99,0 10.99,0.29 15.55,0.65 l 8.3,0.64 -0.6,7.2 -20.58,0.57 0.58,17.43 17.5,0.58 v 3.85 c 0,4.7 -0.77,5.07 -10.55,5.07 h -7.39 z m 123.03,9.5 c -0.3,4.09 -0.44,4.26 -3.81,4.44 -10.06,0.56 -12,-3.24 -12,-23.52 0,-14.83 -0.03,-15.04 -2.25,-15.35 -1.71,-0.24 -2.32,-1.08 -2.56,-3.49 -0.26,-2.67 0.07,-3.23 2,-3.5 2.06,-0.3 2.34,-0.94 2.61,-6.08 l 0.3,-5.75 h 9.8 l 0.3,5.75 c 0.28,5.44 0.45,5.77 3.05,6.07 2.4,0.27 2.75,0.74 2.75,3.75 0,3.14 -0.25,3.43 -3,3.43 h -3 v 13.8 c 0,14.3 0.5,16.2 4.26,16.2 1.56,0 1.81,0.66 1.55,4.25 z m 153,0 c -0.31,4.19 -0.36,4.25 -4.31,4.49 -2.2,0.13 -5.08,-0.37 -6.39,-1.11 -4.45,-2.51 -5.04,-5.05 -5.07,-21.88 L 751,693 h -2.5 c -2.18,0 -2.5,-0.44 -2.5,-3.43 0,-2.8 0.42,-3.49 2.25,-3.75 1.99,-0.28 2.28,-0.98 2.55,-6.07 l 0.3,-5.75 h 9.8 l 0.3,5.75 c 0.29,5.47 0.43,5.77 3.11,6.07 2.5,0.29 2.77,0.67 2.5,3.5 -0.26,2.63 -0.78,3.23 -3.06,3.5 l -2.75,0.31 v 13.74 c 0,14.22 0.5,16.13 4.26,16.13 1.56,0 1.81,0.66 1.55,4.25 z m -409.14,-4.92 c 1.05,1.05 7.25,0.78 9.48,-0.41 3.79,-2.03 4.85,-6.88 4.85,-22.24 C 372,679.56 370.82,677 361.57,677 H 357 v 22.33 c 0,12.29 0.3,22.64 0.67,23 z M 508.37,615.3 c -0.99,0.98 -45.37,0.88 -45.37,-0.11 0,-1.33 21.07,-23.19 22.35,-23.19 1.68,0 23.86,22.45 23.02,23.3 z m -30.73,-95.9 c 4.75,3.23 10.31,3.41 15.02,0.5 8.16,-5.04 8.53,-16.67 0.73,-22.81 -3.17,-2.49 -11.03,-2.85 -15.2,-0.69 -3.03,1.57 -7.19,8.23 -7.19,11.52 0,4.02 2.81,8.88 6.64,11.48 z m 193.1,198.1 -0.24,14 -4.04,0.3 c -2.22,0.16 -4.35,-0.03 -4.75,-0.42 C 661.32,730.99 661,720.62 661,708.33 V 686 h 5 c 4.71,0 5,0.15 5,2.58 v 2.57 l 3.08,-3.07 c 2.03,-2.04 4.07,-3.08 6,-3.08 2.84,0 2.92,0.14 2.92,5 0,4.99 0,5 -3.31,5 -3.7,0 -7.38,2.82 -8.18,6.28 -0.29,1.22 -0.63,8.52 -0.77,16.22 z M 511.75,587 c 0.13,11.55 -0.1,21 -0.52,21 -1.26,0 -13.55,-11.46 -17.66,-16.48 l -3.85,-4.7 10.37,-10.41 C 505.8,570.68 510.7,566 510.98,566 c 0.29,0 0.63,9.45 0.77,21 z m -40.14,10.94 c -5.45,5.53 -10.28,10.06 -10.75,10.06 -0.48,0 -0.86,-9.45 -0.86,-21 0,-11.55 0.29,-21 0.63,-21 0.6,0 20.87,20.99 20.87,21.6 0,0.16 -4.45,4.81 -9.89,10.34 z m 228.16,110.81 -0.27,22.75 -4.75,0.3 -4.75,0.31 V 720.3 c -0.01,-6.49 -0.3,-16.86 -0.66,-23.05 L 688.69,686 h 11.35 z m -204.05,-145.54 9.61,0.29 -9.93,10.39 -9.94,10.38 -9.64,-10.38 -9.64,-10.39 9.97,-0.29 c 5.47,-0.15 14.28,-0.15 19.57,0 z m 88.35,50.1 -1.02,2.69 H 561 v -4.95 c 0,-2.73 0.52,-6.1 1.16,-7.5 1.1,-2.42 1.56,-2.55 9.25,-2.56 4.45,-0.01 9.05,-0.27 10.21,-0.59 1.93,-0.51 2.19,-0.05 2.8,4.82 0.38,3.06 0.23,6.56 -0.35,8.09 z M 616.01,607.75 616,616 h -5.88 c -3.54,0 -6.3,-0.51 -6.93,-1.27 -0.72,-0.87 -0.77,-3.62 -0.14,-8.61 0.74,-5.91 1.48,-7.96 3.85,-10.66 1.62,-1.84 4.16,-6.07 5.65,-9.4 1.5,-3.33 3.18,-6.06 3.74,-6.06 0.66,0 0.79,3.4 0.37,9.75 -0.36,5.36 -0.65,13.46 -0.65,18 z m -47.56,113.8 c 2.98,2.97 4.91,3.09 7.55,0.45 1.76,-1.76 2,-3.33 2,-13.28 0,-12.28 -1.17,-15.73 -5.31,-15.7 -5.23,0.03 -6.69,3.52 -6.69,15.96 0,9.4 0.17,10.28 2.45,12.57 z m -39.38,-0.18 c 3.63,4.61 8.26,2.73 9.49,-3.85 0.35,-1.88 0.48,-7.53 0.29,-12.55 -0.29,-7.64 -0.67,-9.36 -2.29,-10.55 -2.69,-1.97 -5.21,-1.77 -7.56,0.58 -1.75,1.75 -2,3.33 -2,12.87 0,9.47 0.26,11.2 2.07,13.5 z m 104.15,1.07 c 2.94,2.06 4.37,1.97 6.78,-0.44 1.77,-1.77 2,-3.33 2,-13.67 0,-9.46 -0.31,-12.02 -1.65,-13.5 -2.06,-2.28 -5.12,-2.35 -7.52,-0.18 -1.58,1.44 -1.83,3.31 -1.83,13.95 0,11.56 0.13,12.38 2.22,13.84 z m -318.7,-14.41 c 0.33,0.53 2.6,0.97 5.04,0.97 h 0.26 c 1.75,0 2.88,0 3.5,-0.56 1.13,-1.03 0.53,-3.98 -1.19,-12.32 l -0.14,-0.69 c -1.91,-9.27 -2.56,-11.31 -3.31,-10.35 -0.88,1.13 -4.68,22.11 -4.16,22.95 z m 385.28,-34.28 -0.3,4.75 -4.75,0.3 -0.22,0.02 c -2.27,0.14 -3.45,0.22 -4.06,-0.33 -0.67,-0.6 -0.67,-1.94 -0.67,-4.74 v -0.25 c 0,-1.38 0.04,-2.95 0.1,-3.5 0.06,-0.55 2.37,-1 5.15,-1 h 5.06 z M 529.7,602.17 c -0.56,4.21 -1.82,6.37 -3.02,5.18 -1.14,-1.14 -0.76,-5.92 0.75,-9.49 1.18,-2.8 1.54,-3.06 2.12,-1.56 0.39,0.99 0.45,3.63 0.15,5.87 z m 25.3,9.27 c 0,5.92 -2.25,5.65 -4.01,-0.47 -0.78,-2.71 -0.64,-2.97 1.58,-2.97 2.1,0 2.43,0.46 2.43,3.44 z M 264,384.5 c 0,1.92 -3.04,1.93 -5.56,0.03 -1.82,-1.37 -1.7,-1.47 1.81,-1.5 2.68,-0.02 3.75,0.4 3.75,1.47 z"
       fill="rgb(47,92,63)"
       id="path1-7"
       style="fill:#003333;fill-opacity:1"
       clip-path="url(#clipPath9)" /><path
       d="m 747.06,568.5 c -1.19,5.5 -2.5,10.33 -2.9,10.74 -1.19,1.2 -15.06,-7.52 -23.06,-14.49 -10.27,-8.95 -16.45,-16.72 -21.66,-27.25 -6.18,-12.48 -8.44,-22.13 -8.44,-36.05 0,-15.31 1.78,-24.52 9.92,-51.34 5.88,-19.37 8.08,-31.98 8.08,-46.25 0,-13.54 -2.56,-28.53 -6.46,-37.76 -1.3,-3.08 -2.23,-5.74 -2.06,-5.91 0.76,-0.77 19.33,9.4 28.22,15.45 15.75,10.72 21.12,15.06 33.16,26.79 15.7,15.3 26.59,30.19 35.12,48.05 25.32,52.98 12.88,103.11 -31.37,126.42 -7.13,3.75 -8.85,3.93 -8.11,0.85 0.3,-1.24 0.94,-5.54 1.43,-9.55 0.65,-5.25 1.55,-8.11 3.23,-10.16 7.11,-8.68 23.32,-28.75 24.25,-30.03 1.15,-1.57 -4.32,3.11 -16.66,14.24 -4.11,3.71 -7.65,6.75 -7.86,6.75 -0.22,0 -0.36,-10.93 -0.31,-24.28 0.07,-24.12 0.09,-24.3 2.63,-28.75 8.67,-15.2 10.64,-18.73 11.71,-20.97 l 0.09,-0.17 c 0.36,-0.76 0.62,-1.3 0.53,-1.37 -0.21,-0.15 -2.37,2.31 -9.61,10.6 l -0.69,0.79 c -6.12,7.01 -6.55,6.93 -7.67,-1.35 -1.79,-13.18 -9.83,-41.24 -15.18,-52.99 -3,-6.59 -2.95,-4.84 0.13,4.81 2.76,8.64 6.94,28.65 8.05,38.54 0.03,0.3 0.07,0.58 0.1,0.86 0.29,2.55 0.47,4.09 -0.13,4.49 -0.91,0.62 -3.63,-1.41 -10.51,-6.54 -0.48,-0.36 -0.98,-0.73 -1.51,-1.12 -4.82,-3.6 -9.06,-6.53 -9.4,-6.5 -0.34,0.03 4.78,5.2 11.38,11.5 l 12,11.45 -0.03,21.45 c -0.02,11.79 -0.35,21.76 -0.74,22.15 -0.38,0.39 -2.86,-1.28 -5.51,-3.7 -5.79,-5.3 -9.79,-8.78 -17.68,-15.4 l -5.95,-5 2.93,4 c 3.05,4.17 15.33,18.9 21.61,25.93 l 3.63,4.07 -1.26,8.5 c -0.7,4.67 -2.25,13 -3.44,18.5 z M 675.17,339.35 c -2.76,2.49 -4.29,2.07 -10.75,-2.99 -44.88,-35.19 -107.71,-53.21 -172.2,-49.41 -10.6,0.62 -20.05,1.37 -21,1.67 -1.42,0.44 -1.46,0.36 -0.22,-0.43 3.93,-2.52 25.99,-5.38 45.58,-5.91 29.45,-0.8 46.74,1.25 73.92,8.73 17.1,4.71 27.15,8.37 41.18,14.98 14.27,6.74 23.84,12.62 37.07,22.78 4.54,3.49 8.25,6.92 8.25,7.63 0,0.71 -0.82,2.03 -1.83,2.95 z m -53.47,-46.1 c -0.68,3.23 -1.17,3.74 -3.5,3.71 -3.88,-0.05 -12.91,-3.49 -17.47,-6.65 -10.24,-7.1 -15.03,-16.87 -14.85,-30.31 0.06,-4.68 0.47,-10.07 0.91,-12 0.72,-3.14 1.1,-3.47 3.76,-3.18 1.62,0.18 6.19,1.91 10.15,3.85 8.25,4.03 14.69,10.31 18.94,18.45 2.43,4.65 2.82,6.53 2.84,13.88 0.01,4.67 -0.34,10.19 -0.78,12.25 z m -177.58,16.23 c -5.96,2.02 -17.29,1.85 -24.12,-0.38 -6.06,-1.99 -15,-6.19 -14.99,-7.05 0,-0.3 1.7,-2.79 3.77,-5.52 8.97,-11.85 22.88,-19.36 33.78,-18.24 6.65,0.69 13.99,3.89 18.16,7.93 l 3.22,3.12 -2.69,4.95 c -3.37,6.19 -11.27,13.19 -17.13,15.19 z m 153.43,29.29 c -4.12,2.12 -6.71,2.65 -14.05,2.9 -8.43,0.28 -17.44,-1.35 -19.78,-3.58 -1.27,-1.21 6.96,-16.52 11.25,-20.94 5.54,-5.71 14.65,-10.1 22.47,-10.83 7.95,-0.74 20.56,2.62 20.56,5.49 0,3.47 -6.8,15.78 -11.06,20.03 -2.39,2.38 -6.62,5.5 -9.39,6.93 z m -41.02,-9.16 c -6.07,2.78 -17.69,3.86 -24.4,2.26 -4.31,-1.02 -4.36,-1.08 -3.79,-4.61 0.98,-5.98 7.26,-17.91 11.87,-22.52 7.96,-7.97 18.11,-11.25 29.68,-9.61 3.61,0.51 6.9,1.26 7.3,1.66 1.18,1.18 -1.99,13.07 -4.9,18.43 -3.34,6.12 -9.01,11.31 -15.76,14.39 z m 24.27,-55.98 c 0.24,5.03 0.04,9.77 -0.44,10.54 -1.23,2.01 -11.19,0.58 -19.07,-2.74 -13.06,-5.51 -20.25,-18.03 -20.28,-35.32 l -0.01,-7.39 6.1,0.63 c 12.08,1.27 25.56,10.29 30.99,20.76 1.74,3.34 2.38,6.57 2.71,13.52 z m -40.16,4.88 c -0.45,1.15 -2.26,1.47 -7.86,1.39 -11.46,-0.16 -15.77,-1.7 -23.57,-8.43 -6.32,-5.45 -12.21,-18.79 -12.21,-27.68 0,-2.78 0.02,-2.79 6.84,-2.79 14.11,0 27.12,7.21 32.7,18.11 2.51,4.92 5.05,16.92 4.1,19.4 z m -23.5,46.61 c -3.53,1.7 -7,2.34 -14.46,2.68 l -9.82,0.44 0.7,-3.87 c 4.41,-24.35 19.51,-37.84 39.07,-34.9 l 4.63,0.69 -0.68,6.63 c -1.32,12.85 -8.24,22.93 -19.44,28.33 z M 496.1,280.75 c -4.44,1.36 -13.14,1.52 -17.1,0.31 -9,-2.74 -16.86,-9.86 -21.81,-19.73 -4.94,-9.83 -4.94,-10.05 0.01,-11.39 11.2,-3.05 27.1,1.09 33.88,8.8 3.65,4.16 7.78,12.58 8.56,17.47 0.5,3.12 0.32,3.35 -3.54,4.54 z m -20.35,45.73 c -2.81,0.84 -7.57,1.52 -10.58,1.52 h -5.46 l 0.65,-6.97 c 0.93,-9.95 3.81,-16.85 9.41,-22.54 6.33,-6.44 11.89,-8.83 20.73,-8.92 l 7,-0.07 0.34,3.5 c 0.49,4.99 -1.61,13.69 -4.69,19.42 -3.28,6.1 -10.65,12.06 -17.4,14.06 z m 261.56,300.55 c -2.83,2.61 -9.31,0.89 -9.31,-2.48 0,-0.73 2.43,-6.37 5.41,-12.54 2.97,-6.16 6.68,-15.22 8.23,-20.11 1.56,-4.9 3.12,-8.9 3.48,-8.9 0.36,0 1.62,0.79 2.8,1.75 l 2.15,1.75 -2.53,10 c -2.76,10.9 -8.94,29.33 -10.23,30.53 z M 403.22,277.63 c -7.85,1.85 -14.95,3.37 -15.78,3.37 -1.79,0 -3.08,-2.79 -1.82,-3.94 1.2,-1.09 35.12,-8.92 46.13,-10.65 4.05,-0.63 4.25,-0.55 4.25,1.84 0,2.36 -0.51,2.6 -9.25,4.25 -5.09,0.97 -15.68,3.27 -23.53,5.13 z m 12.72,51.81 c -18.71,5.16 -20.94,5.44 -20.94,2.64 0,-2.14 0.26,-2.24 18,-7.12 6.33,-1.74 15.27,-4.24 19.88,-5.54 4.61,-1.31 8.77,-2.13 9.25,-1.84 0.48,0.3 0.87,1.4 0.87,2.45 0,1.46 -1.26,2.27 -5.25,3.39 -2.89,0.81 -12.7,3.52 -21.81,6.02 z m 23.99,8.61 c -8.45,2.17 -15.94,3.95 -16.65,3.95 -1.91,0 -1.55,-3.79 0.47,-4.83 1.84,-0.94 29.27,-8.17 31.02,-8.17 1.42,0 2.48,3.15 1.41,4.22 -0.48,0.48 -7.79,2.66 -16.25,4.83 z M 431,257.13 c -18,3.42 -20,3.51 -20,0.91 0,-2.29 2.01,-2.93 18.96,-5.98 14.92,-2.68 16.27,-2.67 15.86,0.13 -0.29,1.98 -1.68,2.45 -14.82,4.94 z m -50.33,53.92 c -12.15,3.51 -14.67,3.69 -14.67,1.03 0,-2.18 3.3,-3.45 19.68,-7.54 l 0.32,-0.08 c 8.54,-2.13 11,-2.75 11.71,-1.9 0.29,0.35 0.29,0.93 0.29,1.75 v 0.08 c 0,1.95 -0.66,2.51 -3.58,3.06 -1.97,0.37 -8.16,1.99 -13.75,3.6 z m 152.54,269.27 c -1.32,-5.84 -2.15,-5.89 -2.19,0.18 -0.03,3.3 -0.49,6.67 -1.02,7.5 -0.21,0.32 -0.38,0.24 -0.52,-0.25 l 0.26,-7 c 0.19,-4.81 0.68,-8.75 1.11,-8.75 0.4,0 1.44,3.69 2.36,8.32 z M 256,379.11 c 0,-1.22 -1.86,-1.83 -4.4,-1.53 2.19,-0.59 4.74,-1 5.73,-0.74 0.45,0.12 1.34,-1.15 1.97,-2.81 0.28,-0.75 0.53,-1.31 0.83,-1.74 -0.13,0.59 -0.13,1.45 -0.13,2.71 0,3.49 0.29,4 2.25,3.98 0.12,0 0.23,0 0.35,-0.01 -2.07,0.3 -4.78,0.52 -7.3,0.64 0.44,-0.14 0.7,-0.32 0.7,-0.5 z m 284.58,229.14 c 0.32,0.32 0.42,1.63 0.23,2.91 l -0.35,2.34 -0.69,-2.46 c -0.69,-2.46 -0.28,-3.88 0.81,-2.79 z m -11.21,-20.99 c -0.23,-1.36 -0.35,-4.2 -0.35,-8.61 L 529,567.8 l 0.21,10.85 z M 265.61,378.23 c 0.61,-0.4 1.32,-2.19 1.58,-3.98 0.05,-0.38 0.1,-0.71 0.13,-1.01 -0.03,0.35 -0.07,0.74 -0.12,1.19 -0.22,1.89 -0.98,3.65 -1.68,3.92 -0.14,0.06 -0.3,0.11 -0.49,0.16 0.24,-0.09 0.44,-0.18 0.58,-0.28 z m -17.54,0.81 c 0.04,0.17 0.2,0.32 0.49,0.46 -0.36,-0.07 -0.56,-0.16 -0.56,-0.28 0,-0.06 0.03,-0.12 0.07,-0.18 z"
       fill="#99aa60"
       id="path3-8"
       clip-path="url(#clipPath5)"
       style="fill:#339966;fill-opacity:1" /><text
       xml:space="preserve"
       style="font-style:normal;font-variant:normal;font-weight:bold;font-stretch:normal;font-size:74.6667px;line-height:1;font-family:'Liberation Sans';-inkscape-font-specification:'Liberation Sans, Bold';font-variant-ligatures:normal;font-variant-caps:normal;font-variant-numeric:normal;font-variant-east-asian:normal;text-align:center;text-anchor:middle;fill:#003333;stroke:none;stroke-width:2.66667"
       x="510.31897"
       y="720.8623"
       id="text1"><tspan
         sodipodi:role="line"
         id="tspan1"
         x="510.319"
         y="720.8623">FADN2Footprint</tspan></text></g><g
     inkscape:groupmode="layer"
     id="layer1"
     inkscape:label="Layer 1"
     style="display:none"
     transform="translate(-142.81,-104.1649)"><text
       xml:space="preserve"
       id="text13"
       style="font-style:normal;font-variant:normal;font-weight:bold;font-stretch:normal;font-size:18.6667px;line-height:1;font-family:Arial;-inkscape-font-specification:'Arial, Bold';font-variant-ligatures:normal;font-variant-caps:normal;font-variant-numeric:normal;font-variant-east-asian:normal;text-align:center;white-space:pre;shape-inside:url(#rect14);display:inline;fill:#003333;fill-opacity:1;fill-rule:nonzero;stroke:none;stroke-width:2.66667;stroke-opacity:1"
       transform="translate(222,182)"><tspan
         x="36.17154"
         y="242.53351"
         id="tspan14">€</tspan></text><text
       xml:space="preserve"
       id="text13-0"
       style="font-style:normal;font-variant:normal;font-weight:bold;font-stretch:normal;font-size:18.6667px;line-height:1;font-family:Arial;-inkscape-font-specification:'Arial, Bold';font-variant-ligatures:normal;font-variant-caps:normal;font-variant-numeric:normal;font-variant-east-asian:normal;text-align:center;white-space:pre;shape-inside:url(#rect14-1);display:inline;fill:#003333;fill-opacity:1;fill-rule:nonzero;stroke:none;stroke-width:2.66667;stroke-opacity:1"
       transform="translate(221.12013,203.05636)"><tspan
         x="36.17154"
         y="242.53351"
         id="tspan15">€</tspan></text><text
       xml:space="preserve"
       id="text13-0-6"
       style="font-style:normal;font-variant:normal;font-weight:bold;font-stretch:normal;font-size:18.6667px;line-height:1;font-family:Arial;-inkscape-font-specification:'Arial, Bold';font-variant-ligatures:normal;font-variant-caps:normal;font-variant-numeric:normal;font-variant-east-asian:normal;text-align:center;white-space:pre;shape-inside:url(#rect14-1-9);display:inline;fill:#003333;fill-opacity:1;fill-rule:nonzero;stroke:none;stroke-width:2.66667;stroke-opacity:1"
       transform="translate(244.12013,203.05636)"><tspan
         x="36.17154"
         y="242.53351"
         id="tspan16">€</tspan></text><text
       xml:space="preserve"
       id="text13-0-6-0"
       style="font-style:normal;font-variant:normal;font-weight:bold;font-stretch:normal;font-size:18.6667px;line-height:1;font-family:Arial;-inkscape-font-specification:'Arial, Bold';font-variant-ligatures:normal;font-variant-caps:normal;font-variant-numeric:normal;font-variant-east-asian:normal;text-align:center;white-space:pre;shape-inside:url(#rect14-1-9-2);display:inline;fill:#003333;fill-opacity:1;fill-rule:nonzero;stroke:none;stroke-width:2.66667;stroke-opacity:1"
       transform="translate(266.12013,203.05636)"><tspan
         x="36.17154"
         y="242.53351"
         id="tspan17">€</tspan></text><text
       xml:space="preserve"
       id="text13-0-6-0-7"
       style="font-style:normal;font-variant:normal;font-weight:bold;font-stretch:normal;font-size:18.6667px;line-height:1;font-family:Arial;-inkscape-font-specification:'Arial, Bold';font-variant-ligatures:normal;font-variant-caps:normal;font-variant-numeric:normal;font-variant-east-asian:normal;text-align:center;white-space:pre;shape-inside:url(#rect14-1-9-2-8);display:inline;fill:#003333;fill-opacity:1;fill-rule:nonzero;stroke:none;stroke-width:2.66667;stroke-opacity:1"
       transform="translate(266.12013,181.05636)"><tspan
         x="36.17154"
         y="242.53351"
         id="tspan18">€</tspan></text><text
       xml:space="preserve"
       id="text13-0-6-0-7-6"
       style="font-style:normal;font-variant:normal;font-weight:bold;font-stretch:normal;font-size:18.6667px;line-height:1;font-family:Arial;-inkscape-font-specification:'Arial, Bold';font-variant-ligatures:normal;font-variant-caps:normal;font-variant-numeric:normal;font-variant-east-asian:normal;text-align:center;white-space:pre;shape-inside:url(#rect14-1-9-2-8-8);display:inline;fill:#003333;fill-opacity:1;fill-rule:nonzero;stroke:none;stroke-width:2.66667;stroke-opacity:1"
       transform="translate(288.12013,181.05636)"><tspan
         x="36.17154"
         y="242.53351"
         id="tspan19">€</tspan></text><text
       xml:space="preserve"
       id="text13-0-6-0-7-6-0"
       style="font-style:normal;font-variant:normal;font-weight:bold;font-stretch:normal;font-size:18.6667px;line-height:1;font-family:Arial;-inkscape-font-specification:'Arial, Bold';font-variant-ligatures:normal;font-variant-caps:normal;font-variant-numeric:normal;font-variant-east-asian:normal;text-align:center;white-space:pre;shape-inside:url(#rect14-1-9-2-8-8-9);display:inline;fill:#003333;fill-opacity:1;fill-rule:nonzero;stroke:none;stroke-width:2.66667;stroke-opacity:1"
       transform="translate(266.12013,159.05636)"><tspan
         x="36.17154"
         y="242.53351"
         id="tspan20">€</tspan></text><text
       xml:space="preserve"
       id="text13-0-6-0-7-6-0-4"
       style="font-style:normal;font-variant:normal;font-weight:bold;font-stretch:normal;font-size:18.6667px;line-height:1;font-family:Arial;-inkscape-font-specification:'Arial, Bold';font-variant-ligatures:normal;font-variant-caps:normal;font-variant-numeric:normal;font-variant-east-asian:normal;text-align:center;white-space:pre;shape-inside:url(#rect14-1-9-2-8-8-9-9);display:inline;fill:#003333;fill-opacity:1;fill-rule:nonzero;stroke:none;stroke-width:2.66667;stroke-opacity:1"
       transform="translate(288.12013,159.05636)"><tspan
         x="36.17154"
         y="242.53351"
         id="tspan21">€</tspan></text><text
       xml:space="preserve"
       id="text13-0-6-0-7-6-0-4-9"
       style="font-style:normal;font-variant:normal;font-weight:bold;font-stretch:normal;font-size:18.6667px;line-height:1;font-family:Arial;-inkscape-font-specification:'Arial, Bold';font-variant-ligatures:normal;font-variant-caps:normal;font-variant-numeric:normal;font-variant-east-asian:normal;text-align:center;white-space:pre;shape-inside:url(#rect14-1-9-2-8-8-9-9-3);display:inline;fill:#003333;fill-opacity:1;fill-rule:nonzero;stroke:none;stroke-width:2.66667;stroke-opacity:1"
       transform="translate(244.12013,159.05636)"><tspan
         x="36.17154"
         y="242.53351"
         id="tspan22">€</tspan></text><text
       xml:space="preserve"
       id="text13-0-6-0-7-6-0-4-9-0"
       style="font-style:normal;font-variant:normal;font-weight:bold;font-stretch:normal;font-size:18.6667px;line-height:1;font-family:Arial;-inkscape-font-specification:'Arial, Bold';font-variant-ligatures:normal;font-variant-caps:normal;font-variant-numeric:normal;font-variant-east-asian:normal;text-align:center;white-space:pre;shape-inside:url(#rect14-1-9-2-8-8-9-9-3-4);display:inline;fill:#003333;fill-opacity:1;fill-rule:nonzero;stroke:none;stroke-width:2.66667;stroke-opacity:1"
       transform="translate(266.12013,137.05636)"><tspan
         x="36.17154"
         y="242.53351"
         id="tspan23">€</tspan></text><text
       xml:space="preserve"
       id="text13-0-6-0-7-6-0-4-9-0-5"
       style="font-style:normal;font-variant:normal;font-weight:bold;font-stretch:normal;font-size:18.6667px;line-height:1;font-family:Arial;-inkscape-font-specification:'Arial, Bold';font-variant-ligatures:normal;font-variant-caps:normal;font-variant-numeric:normal;font-variant-east-asian:normal;text-align:center;white-space:pre;shape-inside:url(#rect14-1-9-2-8-8-9-9-3-4-4);display:inline;fill:#003333;fill-opacity:1;fill-rule:nonzero;stroke:none;stroke-width:2.66667;stroke-opacity:1"
       transform="translate(288.12013,137.05636)"><tspan
         x="36.17154"
         y="242.53351"
         id="tspan24">€</tspan></text><text
       xml:space="preserve"
       id="text13-3"
       style="font-style:normal;font-variant:normal;font-weight:bold;font-stretch:normal;font-size:18.6667px;line-height:1;font-family:Arial;-inkscape-font-specification:'Arial, Bold';font-variant-ligatures:normal;font-variant-caps:normal;font-variant-numeric:normal;font-variant-east-asian:normal;text-align:center;white-space:pre;shape-inside:url(#rect14-9);display:inline;fill:#003333;fill-opacity:1;fill-rule:nonzero;stroke:none;stroke-width:2.66667;stroke-opacity:1"
       transform="translate(243.42013,181.55636)"><tspan
         x="36.17154"
         y="242.53351"
         id="tspan25">€</tspan></text></g></svg>
